<?xml version="1.0" encoding="UTF-8"?>
<!DOCTYPE svg PUBLIC "-//W3C//DTD SVG 1.1//EN" "http://www.w3.org/Graphics/SVG/1.1/DTD/svg11.dtd">
<svg xmlns="http://www.w3.org/2000/svg" version="1.1" width="284px" height="279px" style="shape-rendering:geometricPrecision; text-rendering:geometricPrecision; image-rendering:optimizeQuality; fill-rule:evenodd; clip-rule:evenodd" xmlns:xlink="http://www.w3.org/1999/xlink">
<g><path style="opacity:1" fill="#fdfdfd" d="M -0.5,-0.5 C 94.1667,-0.5 188.833,-0.5 283.5,-0.5C 283.5,92.5 283.5,185.5 283.5,278.5C 188.833,278.5 94.1667,278.5 -0.5,278.5C -0.5,185.5 -0.5,92.5 -0.5,-0.5 Z"/></g>
<g><path style="opacity:1" fill="#0d0d0d" d="M 182.5,16.5 C 182.5,20.1667 182.5,23.8333 182.5,27.5C 193.833,27.5 205.167,27.5 216.5,27.5C 216.5,25.5 216.5,23.5 216.5,21.5C 218.581,19.1005 220.914,18.9338 223.5,21C 224.423,23.0408 224.756,25.2075 224.5,27.5C 227.833,27.5 231.167,27.5 234.5,27.5C 234.192,25.076 234.526,22.7427 235.5,20.5C 237.823,19.1688 239.823,19.5021 241.5,21.5C 241.5,23.5 241.5,25.5 241.5,27.5C 249.167,27.5 256.833,27.5 264.5,27.5C 271.924,30.6831 274.091,36.0164 271,43.5C 269.074,45.5389 266.907,47.2055 264.5,48.5C 256.833,48.5 249.167,48.5 241.5,48.5C 241.5,49.8333 241.5,51.1667 241.5,52.5C 240.866,53.9468 239.699,54.6134 238,54.5C 236.301,54.6134 235.134,53.9468 234.5,52.5C 234.5,51.1667 234.5,49.8333 234.5,48.5C 230.833,48.5 227.167,48.5 223.5,48.5C 223.169,70.3398 223.503,92.0064 224.5,113.5C 228.701,115.029 232.034,117.696 234.5,121.5C 235.344,125.099 235.677,128.766 235.5,132.5C 233.414,135.639 232.247,138.972 232,142.5C 242.254,160.673 252.254,179.007 262,197.5C 266.414,198.303 270.914,198.803 275.5,199C 278.119,208.478 275.453,216.478 267.5,223C 263.905,225.569 259.905,227.236 255.5,228C 232.502,228.5 209.502,228.667 186.5,228.5C 185.081,227.549 183.415,227.216 181.5,227.5C 181.171,240.344 181.505,253.011 182.5,265.5C 213.502,265.333 244.502,265.5 275.5,266C 278.167,268.333 278.167,270.667 275.5,273C 185.833,273.667 96.1667,273.667 6.5,273C 3.83333,270.667 3.83333,268.333 6.5,266C 37.4982,265.5 68.4982,265.333 99.5,265.5C 100.495,253.011 100.829,240.344 100.5,227.5C 98.5853,227.216 96.9187,227.549 95.5,228.5C 71.474,228.794 47.474,228.46 23.5,227.5C 10.3917,222.595 4.39174,213.262 5.5,199.5C 10.3047,198.94 14.9714,198.273 19.5,197.5C 29.6388,179.229 39.8055,160.896 50,142.5C 50.6667,141.167 50.6667,139.833 50,138.5C 48.0527,136.937 46.886,134.937 46.5,132.5C 46.3227,128.766 46.6561,125.099 47.5,121.5C 49.3673,116.963 52.7007,114.296 57.5,113.5C 58.4973,92.0064 58.8307,70.3398 58.5,48.5C 54.8333,48.5 51.1667,48.5 47.5,48.5C 47.5,49.8333 47.5,51.1667 47.5,52.5C 46.8658,53.9468 45.6991,54.6134 44,54.5C 42.3009,54.6134 41.1342,53.9468 40.5,52.5C 40.5,51.1667 40.5,49.8333 40.5,48.5C 32.8333,48.5 25.1667,48.5 17.5,48.5C 9.54544,44.4654 7.71211,38.4654 12,30.5C 13.4877,28.84 15.321,27.84 17.5,27.5C 25.1667,27.5 32.8333,27.5 40.5,27.5C 40.5,25.5 40.5,23.5 40.5,21.5C 42.7504,18.9659 45.0837,18.9659 47.5,21.5C 47.5,23.5 47.5,25.5 47.5,27.5C 51.1667,27.5 54.8333,27.5 58.5,27.5C 58.5,25.5 58.5,23.5 58.5,21.5C 60.7504,18.9659 63.0837,18.9659 65.5,21.5C 65.5,23.5 65.5,25.5 65.5,27.5C 74.8333,27.5 84.1667,27.5 93.5,27.5C 93.6159,24.1401 93.9492,20.8067 94.5,17.5C 96.1878,15.1455 98.1878,13.1455 100.5,11.5C 103.807,10.9492 107.14,10.6159 110.5,10.5C 111.807,11.1534 113.14,11.8201 114.5,12.5C 119.7,4.4641 126.7,2.4641 135.5,6.5C 144.136,-0.455944 152.469,-0.122611 160.5,7.5C 168.397,2.8458 175.23,4.17913 181,11.5C 182.009,13.0249 182.509,14.6916 182.5,16.5 Z"/></g>
<g><path style="opacity:1" fill="#5e5e5e" d="M 110.5,10.5 C 107.14,10.6159 103.807,10.9492 100.5,11.5C 102.117,10.0277 104.117,9.36103 106.5,9.5C 108.045,9.51084 109.378,9.84417 110.5,10.5 Z"/></g>
<g><path style="opacity:1" fill="#999999" d="M 151.5,10.5 C 148.763,10.4013 146.096,10.7347 143.5,11.5C 144.492,9.9735 145.992,9.30684 148,9.5C 149.385,9.51428 150.551,9.84761 151.5,10.5 Z"/></g>
<g><path style="opacity:1" fill="#f7f7f7" d="M 151.5,10.5 C 152.458,10.9528 153.292,11.6195 154,12.5C 154.5,22.1609 154.666,31.8276 154.5,41.5C 151.708,41.4521 149.875,42.7854 149,45.5C 148.333,47.8333 148.333,50.1667 149,52.5C 153.127,57.7514 151.96,59.9181 145.5,59C 144.364,57.8549 143.364,56.6883 142.5,55.5C 142.2,40.785 142.533,26.1183 143.5,11.5C 146.096,10.7347 148.763,10.4013 151.5,10.5 Z"/></g>
<g><path style="opacity:1" fill="#7b7b7b" d="M 130.5,13.5 C 128.097,13.448 125.764,13.7814 123.5,14.5C 124.312,13.0069 125.645,12.3402 127.5,12.5C 128.726,12.5195 129.726,12.8529 130.5,13.5 Z"/></g>
<g><path style="opacity:1" fill="#7c7c7c" d="M 171.5,13.5 C 169.097,13.448 166.764,13.7814 164.5,14.5C 165.312,13.0069 166.645,12.3402 168.5,12.5C 169.726,12.5195 170.726,12.8529 171.5,13.5 Z"/></g>
<g><path style="opacity:1" fill="#f4f4f4" d="M 130.5,13.5 C 132.173,14.343 133.34,15.6763 134,17.5C 134.667,29.1667 134.667,40.8333 134,52.5C 130.353,57.313 126.52,57.6463 122.5,53.5C 122.204,40.4506 122.537,27.4506 123.5,14.5C 125.764,13.7814 128.097,13.448 130.5,13.5 Z"/></g>
<g><path style="opacity:1" fill="#f2f2f2" d="M 171.5,13.5 C 172.794,14.2899 173.961,15.2899 175,16.5C 175.5,24.4931 175.666,32.4931 175.5,40.5C 171.167,40.5 166.833,40.5 162.5,40.5C 162.334,32.4931 162.5,24.4931 163,16.5C 163.717,15.9558 164.217,15.2891 164.5,14.5C 166.764,13.7814 169.097,13.448 171.5,13.5 Z"/></g>
<g><path style="opacity:1" fill="#6b6b6b" d="M 143.5,11.5 C 142.533,26.1183 142.2,40.785 142.5,55.5C 141.339,41.3393 141.173,27.0059 142,12.5C 142.383,11.944 142.883,11.6107 143.5,11.5 Z"/></g>
<g><path style="opacity:1" fill="#f0f0f0" d="M 110.5,18.5 C 110.461,19.7562 110.961,20.7562 112,21.5C 112.5,30.4938 112.666,39.4938 112.5,48.5C 111.488,50.876 109.655,51.876 107,51.5C 103.94,51.7751 101.94,50.4417 101,47.5C 100.333,39.1667 100.333,30.8333 101,22.5C 102.811,17.7795 105.978,16.4461 110.5,18.5 Z"/></g>
<g><path style="opacity:1" fill="#bababa" d="M 123.5,14.5 C 122.537,27.4506 122.204,40.4506 122.5,53.5C 121.34,41.0067 121.173,28.3401 122,15.5C 122.383,14.944 122.883,14.6107 123.5,14.5 Z"/></g>
<g><path style="opacity:1" fill="#c7c7c7" d="M 110.5,18.5 C 111.458,18.9528 112.292,19.6195 113,20.5C 113.824,30.0092 113.658,39.3425 112.5,48.5C 112.666,39.4938 112.5,30.4938 112,21.5C 110.961,20.7562 110.461,19.7562 110.5,18.5 Z"/></g>
<g><path style="opacity:1" fill="#a0a0a0" d="M 40.5,21.5 C 40.5,23.5 40.5,25.5 40.5,27.5C 32.8333,27.5 25.1667,27.5 17.5,27.5C 24.6476,26.5084 31.9809,26.175 39.5,26.5C 39.2155,24.5853 39.5489,22.9187 40.5,21.5 Z"/></g>
<g><path style="opacity:1" fill="#8d8d8d" d="M 47.5,21.5 C 48.4511,22.9187 48.7845,24.5853 48.5,26.5C 51.5,26.5 54.5,26.5 57.5,26.5C 57.2155,24.5853 57.5489,22.9187 58.5,21.5C 58.5,23.5 58.5,25.5 58.5,27.5C 54.8333,27.5 51.1667,27.5 47.5,27.5C 47.5,25.5 47.5,23.5 47.5,21.5 Z"/></g>
<g><path style="opacity:1" fill="#a0a0a0" d="M 94.5,17.5 C 93.9492,20.8067 93.6159,24.1401 93.5,27.5C 84.1667,27.5 74.8333,27.5 65.5,27.5C 65.5,25.5 65.5,23.5 65.5,21.5C 66.4511,22.9187 66.7845,24.5853 66.5,26.5C 75.1667,26.5 83.8333,26.5 92.5,26.5C 92.0679,23.1226 92.7345,20.1226 94.5,17.5 Z"/></g>
<g><path style="opacity:1" fill="#9e9e9e" d="M 182.5,16.5 C 183.479,19.6248 183.813,22.9581 183.5,26.5C 194.167,26.5 204.833,26.5 215.5,26.5C 215.216,24.5853 215.549,22.9187 216.5,21.5C 216.5,23.5 216.5,25.5 216.5,27.5C 205.167,27.5 193.833,27.5 182.5,27.5C 182.5,23.8333 182.5,20.1667 182.5,16.5 Z"/></g>
<g><path style="opacity:1" fill="#a0a0a0" d="M 241.5,21.5 C 242.451,22.9187 242.784,24.5853 242.5,26.5C 250.019,26.175 257.352,26.5084 264.5,27.5C 256.833,27.5 249.167,27.5 241.5,27.5C 241.5,25.5 241.5,23.5 241.5,21.5 Z"/></g>
<g><path style="opacity:1" fill="#fbfbfb" d="M 18.5,35.5 C 25.5,35.5 32.5,35.5 39.5,35.5C 39.5,37.1667 39.5,38.8333 39.5,40.5C 32.4921,40.6663 25.4921,40.4996 18.5,40C 17.2721,38.5098 17.2721,37.0098 18.5,35.5 Z"/></g>
<g><path style="opacity:1" fill="#f0f0f0" d="M 47.5,35.5 C 50.8333,35.5 54.1667,35.5 57.5,35.5C 57.5,37.1667 57.5,38.8333 57.5,40.5C 54.1667,40.5 50.8333,40.5 47.5,40.5C 47.5,38.8333 47.5,37.1667 47.5,35.5 Z"/></g>
<g><path style="opacity:1" fill="#fcfcfc" d="M 233.5,35.5 C 233.5,37.1667 233.5,38.8333 233.5,40.5C 230.5,40.5 227.5,40.5 224.5,40.5C 224.5,38.8333 224.5,37.1667 224.5,35.5C 227.5,35.5 230.5,35.5 233.5,35.5 Z"/></g>
<g><path style="opacity:1" fill="#fbfbfb" d="M 264.5,39.5 C 257.254,40.464 249.92,40.7973 242.5,40.5C 242.5,38.8333 242.5,37.1667 242.5,35.5C 249.508,35.3337 256.508,35.5004 263.5,36C 264.337,37.0113 264.67,38.1779 264.5,39.5 Z"/></g>
<g><path style="opacity:1" fill="#575757" d="M 66.5,35.5 C 66.5,37.1667 66.5,38.8333 66.5,40.5C 75.1667,40.5 83.8333,40.5 92.5,40.5C 92.5,38.8333 92.5,37.1667 92.5,35.5C 93.4614,37.2646 93.7947,39.2646 93.5,41.5C 84.1667,41.5 74.8333,41.5 65.5,41.5C 65.2053,39.2646 65.5386,37.2646 66.5,35.5 Z"/></g>
<g><path style="opacity:1" fill="#fefefe" d="M 66.5,35.5 C 75.1667,35.5 83.8333,35.5 92.5,35.5C 92.5,37.1667 92.5,38.8333 92.5,40.5C 83.8333,40.5 75.1667,40.5 66.5,40.5C 66.5,38.8333 66.5,37.1667 66.5,35.5 Z"/></g>
<g><path style="opacity:1" fill="#545454" d="M 183.5,35.5 C 183.5,37.1667 183.5,38.8333 183.5,40.5C 194.167,40.5 204.833,40.5 215.5,40.5C 215.5,38.8333 215.5,37.1667 215.5,35.5C 216.461,37.2646 216.795,39.2646 216.5,41.5C 205.167,41.5 193.833,41.5 182.5,41.5C 182.205,39.2646 182.539,37.2646 183.5,35.5 Z"/></g>
<g><path style="opacity:1" fill="#fdfdfd" d="M 183.5,35.5 C 194.167,35.5 204.833,35.5 215.5,35.5C 215.5,37.1667 215.5,38.8333 215.5,40.5C 204.833,40.5 194.167,40.5 183.5,40.5C 183.5,38.8333 183.5,37.1667 183.5,35.5 Z"/></g>
<g><path style="opacity:1" fill="#575757" d="M 233.5,35.5 C 234.461,37.2646 234.795,39.2646 234.5,41.5C 230.958,41.8128 227.625,41.4794 224.5,40.5C 227.5,40.5 230.5,40.5 233.5,40.5C 233.5,38.8333 233.5,37.1667 233.5,35.5 Z"/></g>
<g><path style="opacity:1" fill="#464646" d="M 264.5,39.5 C 261.232,40.8222 257.565,41.4888 253.5,41.5C 249.651,41.4987 245.984,41.1654 242.5,40.5C 249.92,40.7973 257.254,40.464 264.5,39.5 Z"/></g>
<g><path style="opacity:1" fill="#909090" d="M 17.5,48.5 C 25.1667,48.5 32.8333,48.5 40.5,48.5C 40.5,49.8333 40.5,51.1667 40.5,52.5C 39.596,51.791 39.2627,50.791 39.5,49.5C 31.9809,49.825 24.6476,49.4916 17.5,48.5 Z"/></g>
<g><path style="opacity:1" fill="#8c8c8c" d="M 193.5,49.5 C 181.482,49.1677 169.482,49.501 157.5,50.5C 158.372,52.4496 159.039,54.4496 159.5,56.5C 157.345,54.3826 156.345,51.716 156.5,48.5C 169.011,48.1714 181.345,48.5048 193.5,49.5 Z"/></g>
<g><path style="opacity:1" fill="#909090" d="M 264.5,48.5 C 257.352,49.4916 250.019,49.825 242.5,49.5C 242.737,50.791 242.404,51.791 241.5,52.5C 241.5,51.1667 241.5,49.8333 241.5,48.5C 249.167,48.5 256.833,48.5 264.5,48.5 Z"/></g>
<g><path style="opacity:1" fill="#fbfbfb" d="M 92.5,49.5 C 93.3283,55.9874 93.8283,62.654 94,69.5C 96.6109,72.2434 98.7776,71.91 100.5,68.5C 100.89,65.2033 101.89,62.2033 103.5,59.5C 107.529,59.8514 111.362,59.1848 115,57.5C 120.897,65.1456 128.064,66.4789 136.5,61.5C 142.452,68.2181 149.285,69.2181 157,64.5C 161.212,67.905 166.045,69.7383 171.5,70C 153.112,75.982 145.112,88.3153 147.5,107C 149.84,107.748 151.84,107.248 153.5,105.5C 154.334,100.9 155.334,96.2335 156.5,91.5C 159.5,86.5 163.5,82.5 168.5,79.5C 173.283,78.4915 177.95,77.4915 182.5,76.5C 185.136,71.6659 185.136,66.8326 182.5,62C 176.833,61.6667 171.167,61.3333 165.5,61C 163.34,59.668 161.34,58.168 159.5,56.5C 159.039,54.4496 158.372,52.4496 157.5,50.5C 169.482,49.501 181.482,49.1677 193.5,49.5C 195.017,49.5106 196.184,50.1772 197,51.5C 197.667,61.1667 197.667,70.8333 197,80.5C 195.388,86.3912 192.721,91.7246 189,96.5C 183.333,102.833 177.667,109.167 172,115.5C 168.132,121.972 166.299,128.972 166.5,136.5C 149.167,136.5 131.833,136.5 114.5,136.5C 114.665,132.818 114.499,129.152 114,125.5C 110.876,117.919 107.209,110.586 103,103.5C 102.042,98.8768 101.375,94.2101 101,89.5C 98.7605,86.0126 96.2605,85.6793 93.5,88.5C 92.4889,93.6932 92.6555,99.0265 94,104.5C 94.4238,107.025 95.5905,109.025 97.5,110.5C 99.7703,115.275 102.27,119.942 105,124.5C 106.266,128.395 106.766,132.395 106.5,136.5C 103.99,136.054 101.99,136.72 100.5,138.5C 99.8333,155.167 99.1667,171.833 98.5,188.5C 90.3309,172.157 81.6643,156.157 72.5,140.5C 80.45,129.606 78.7833,120.606 67.5,113.5C 66.5118,92.2421 66.1785,70.9088 66.5,49.5C 75.1667,49.5 83.8333,49.5 92.5,49.5 Z"/></g>
<g><path style="opacity:1" fill="#f9f9f9" d="M 212.5,114.5 C 202.927,121.981 201.927,130.647 209.5,140.5C 200.285,156.266 191.619,172.266 183.5,188.5C 182.833,171.833 182.167,155.167 181.5,138.5C 179.898,136.926 177.898,136.259 175.5,136.5C 175.023,131.258 175.856,126.258 178,121.5C 183.626,114.206 189.626,107.206 196,100.5C 198.062,97.2766 199.896,93.9432 201.5,90.5C 203.655,88.3826 204.655,85.716 204.5,82.5C 204.232,80.901 204.566,79.5676 205.5,78.5C 206.828,69.0982 206.828,59.5982 205.5,50C 208.817,49.5017 212.15,49.335 215.5,49.5C 215.833,70.5106 215.5,91.5106 214.5,112.5C 213.478,112.855 212.811,113.522 212.5,114.5 Z"/></g>
<g><path style="opacity:1" fill="#5c5c5c" d="M 57.5,113.5 C 57.5,92.1667 57.5,70.8333 57.5,49.5C 54.5,49.5 51.5,49.5 48.5,49.5C 48.7373,50.791 48.404,51.791 47.5,52.5C 47.5,51.1667 47.5,49.8333 47.5,48.5C 51.1667,48.5 54.8333,48.5 58.5,48.5C 58.8307,70.3398 58.4973,92.0064 57.5,113.5 Z"/></g>
<g><path style="opacity:1" fill="#919191" d="M 92.5,49.5 C 83.8333,49.5 75.1667,49.5 66.5,49.5C 66.1785,70.9088 66.5118,92.2421 67.5,113.5C 65.511,92.1924 64.8443,70.5258 65.5,48.5C 74.6822,48.1734 83.6822,48.5067 92.5,49.5 Z"/></g>
<g><path style="opacity:1" fill="#8f8f8f" d="M 212.5,114.5 C 212.811,113.522 213.478,112.855 214.5,112.5C 215.5,91.5106 215.833,70.5106 215.5,49.5C 212.15,49.335 208.817,49.5017 205.5,50C 206.828,59.5982 206.828,69.0982 205.5,78.5C 205.758,68.4607 205.424,58.4607 204.5,48.5C 208.5,48.5 212.5,48.5 216.5,48.5C 216.833,70.1769 216.5,91.8436 215.5,113.5C 214.583,114.127 213.583,114.461 212.5,114.5 Z"/></g>
<g><path style="opacity:1" fill="#585858" d="M 234.5,52.5 C 233.596,51.791 233.263,50.791 233.5,49.5C 230.5,49.5 227.5,49.5 224.5,49.5C 224.5,70.8333 224.5,92.1667 224.5,113.5C 223.503,92.0064 223.169,70.3398 223.5,48.5C 227.167,48.5 230.833,48.5 234.5,48.5C 234.5,49.8333 234.5,51.1667 234.5,52.5 Z"/></g>
<g><path style="opacity:1" fill="#7f7f7f" d="M 103.5,59.5 C 101.89,62.2033 100.89,65.2033 100.5,68.5C 100.5,65.1667 100.5,61.8333 100.5,58.5C 101.791,58.2627 102.791,58.596 103.5,59.5 Z"/></g>
<g><path style="opacity:1" fill="#898989" d="M 182.5,76.5 C 177.95,77.4915 173.283,78.4915 168.5,79.5C 172.738,77.0439 177.404,76.0439 182.5,76.5 Z"/></g>
<g><path style="opacity:1" fill="#8a8a8a" d="M 204.5,82.5 C 204.655,85.716 203.655,88.3826 201.5,90.5C 202.129,87.6027 203.129,84.936 204.5,82.5 Z"/></g>
<g><path style="opacity:1" fill="#b6b6b6" d="M 156.5,91.5 C 155.334,96.2335 154.334,100.9 153.5,105.5C 153.335,102.15 153.502,98.8168 154,95.5C 154.608,93.9336 155.442,92.6002 156.5,91.5 Z"/></g>
<g><path style="opacity:1" fill="#a3a3a3" d="M 93.5,88.5 C 93.4449,96.124 94.7782,103.457 97.5,110.5C 95.5905,109.025 94.4238,107.025 94,104.5C 92.6555,99.0265 92.4889,93.6932 93.5,88.5 Z"/></g>
<g><path style="opacity:1" fill="#f0f0f0" d="M 58.5,120.5 C 67.2069,120.037 70.7069,124.037 69,132.5C 62.9935,138.33 57.9935,137.663 54,130.5C 53.0769,126.017 54.5769,122.683 58.5,120.5 Z"/></g>
<g><path style="opacity:1" fill="#f1f1f1" d="M 216.5,120.5 C 224.685,119.196 228.518,122.53 228,130.5C 223.797,137.479 218.797,138.146 213,132.5C 211.593,127.643 212.76,123.643 216.5,120.5 Z"/></g>
<g><path style="opacity:1" fill="#848484" d="M 47.5,121.5 C 46.6561,125.099 46.3227,128.766 46.5,132.5C 45.3592,129.36 45.1925,126.027 46,122.5C 46.3826,121.944 46.8826,121.611 47.5,121.5 Z"/></g>
<g><path style="opacity:1" fill="#818181" d="M 234.5,121.5 C 235.117,121.611 235.617,121.944 236,122.5C 236.808,126.027 236.641,129.36 235.5,132.5C 235.677,128.766 235.344,125.099 234.5,121.5 Z"/></g>
<g><path style="opacity:1" fill="#a0a0a0" d="M 107.5,144.5 C 129.833,144.5 152.167,144.5 174.5,144.5C 174.5,150.833 174.5,157.167 174.5,163.5C 152.167,163.5 129.833,163.5 107.5,163.5C 107.5,157.167 107.5,150.833 107.5,144.5 Z"/></g>
<g><path style="opacity:1" fill="#3e3e3e" d="M 181.5,138.5 C 182.167,155.167 182.833,171.833 183.5,188.5C 183.44,189.043 183.107,189.376 182.5,189.5C 181.501,172.513 181.167,155.513 181.5,138.5 Z"/></g>
<g><path style="opacity:1" fill="#fafafa" d="M 93.5,195.5 C 83.1882,196.832 72.5216,197.499 61.5,197.5C 50.6614,197.5 39.9947,197.167 29.5,196.5C 32.5035,191.159 35.5035,185.825 38.5,180.5C 40.6065,179.434 42.1065,177.767 43,175.5C 45.3074,170.044 47.474,164.711 49.5,159.5C 52.1265,154.583 54.4599,149.583 56.5,144.5C 60.1064,144.211 63.6064,144.544 67,145.5C 76.1133,162.062 84.9467,178.729 93.5,195.5 Z"/></g>
<g><path style="opacity:1" fill="#fdfdfd" d="M 108.5,145.5 C 130.167,145.5 151.833,145.5 173.5,145.5C 173.5,151.167 173.5,156.833 173.5,162.5C 151.833,162.5 130.167,162.5 108.5,162.5C 108.5,156.833 108.5,151.167 108.5,145.5 Z"/></g>
<g><path style="opacity:1" fill="#f9f9f9" d="M 252.5,196.5 C 249.5,197.167 246.5,197.833 243.5,198.5C 240.947,200.962 240.947,203.295 243.5,205.5C 252.05,205.845 260.383,206.845 268.5,208.5C 266.297,214.203 262.297,218.036 256.5,220C 231.833,220.667 207.167,220.667 182.5,220C 177.926,217.688 174.593,214.188 172.5,209.5C 172.5,208.5 172.5,207.5 172.5,206.5C 189.833,206.5 207.167,206.5 224.5,206.5C 224.5,203.833 224.5,201.167 224.5,198.5C 212.299,198.16 200.299,197.16 188.5,195.5C 197.053,178.729 205.887,162.062 215,145.5C 218.394,144.544 221.894,144.211 225.5,144.5C 228.741,152.651 232.741,160.317 237.5,167.5C 242.271,177.377 247.271,187.044 252.5,196.5 Z"/></g>
<g><path style="opacity:1" fill="#3f3f3f" d="M 100.5,138.5 C 100.833,155.513 100.499,172.513 99.5,189.5C 98.8933,189.376 98.56,189.043 98.5,188.5C 99.1667,171.833 99.8333,155.167 100.5,138.5 Z"/></g>
<g><path style="opacity:1" fill="#9e9e9e" d="M 164.5,198.5 C 167.287,197.523 170.287,197.19 173.5,197.5C 173.5,188.833 173.5,180.167 173.5,171.5C 151.833,171.5 130.167,171.5 108.5,171.5C 108.5,180.167 108.5,188.833 108.5,197.5C 111.385,197.194 114.052,197.527 116.5,198.5C 113.5,198.5 110.5,198.5 107.5,198.5C 107.5,189.167 107.5,179.833 107.5,170.5C 129.833,170.5 152.167,170.5 174.5,170.5C 174.5,179.833 174.5,189.167 174.5,198.5C 171.167,198.5 167.833,198.5 164.5,198.5 Z"/></g>
<g><path style="opacity:1" fill="#fefefe" d="M 164.5,198.5 C 162.14,208.752 165.14,217.086 173.5,223.5C 173.5,237.167 173.5,250.833 173.5,264.5C 151.833,264.5 130.167,264.5 108.5,264.5C 108.5,250.833 108.5,237.167 108.5,223.5C 117.212,216.957 119.879,208.624 116.5,198.5C 114.052,197.527 111.385,197.194 108.5,197.5C 108.5,188.833 108.5,180.167 108.5,171.5C 130.167,171.5 151.833,171.5 173.5,171.5C 173.5,180.167 173.5,188.833 173.5,197.5C 170.287,197.19 167.287,197.523 164.5,198.5 Z"/></g>
<g><path style="opacity:1" fill="#c6c6c6" d="M 49.5,159.5 C 47.474,164.711 45.3074,170.044 43,175.5C 42.1065,177.767 40.6065,179.434 38.5,180.5C 41.4056,173.019 45.0723,166.019 49.5,159.5 Z"/></g>
<g><path style="opacity:1" fill="#9e9e9e" d="M 19.5,197.5 C 14.9714,198.273 10.3047,198.94 5.5,199.5C 5.61071,198.883 5.94404,198.383 6.5,198C 10.8206,197.501 15.1539,197.334 19.5,197.5 Z"/></g>
<g><path style="opacity:1" fill="#a1a1a1" d="M 93.5,195.5 C 94.404,196.209 94.7373,197.209 94.5,198.5C 72.4899,198.833 50.4899,198.5 28.5,197.5C 28.6236,196.893 28.9569,196.56 29.5,196.5C 39.9947,197.167 50.6614,197.5 61.5,197.5C 72.5216,197.499 83.1882,196.832 93.5,195.5 Z"/></g>
<g><path style="opacity:1" fill="#a3a3a3" d="M 188.5,195.5 C 200.299,197.16 212.299,198.16 224.5,198.5C 224.167,198.5 223.833,198.5 223.5,198.5C 211.5,198.5 199.5,198.5 187.5,198.5C 187.263,197.209 187.596,196.209 188.5,195.5 Z"/></g>
<g><path style="opacity:1" fill="#9a9a9a" d="M 252.5,196.5 C 253.043,196.56 253.376,196.893 253.5,197.5C 250.232,198.487 246.898,198.82 243.5,198.5C 246.5,197.833 249.5,197.167 252.5,196.5 Z"/></g>
<g><path style="opacity:1" fill="#616161" d="M 109.5,209.5 C 109.5,208.5 109.5,207.5 109.5,206.5C 77.1492,205.841 45.1492,206.507 13.5,208.5C 12.596,207.791 12.2627,206.791 12.5,205.5C 45.1667,205.5 77.8333,205.5 110.5,205.5C 110.768,207.099 110.434,208.432 109.5,209.5 Z"/></g>
<g><path style="opacity:1" fill="#636363" d="M 223.5,198.5 C 223.833,198.5 224.167,198.5 224.5,198.5C 224.5,201.167 224.5,203.833 224.5,206.5C 207.167,206.5 189.833,206.5 172.5,206.5C 172.5,207.5 172.5,208.5 172.5,209.5C 171.566,208.432 171.232,207.099 171.5,205.5C 188.833,205.5 206.167,205.5 223.5,205.5C 223.5,203.167 223.5,200.833 223.5,198.5 Z"/></g>
<g><path style="opacity:1" fill="#606060" d="M 243.5,205.5 C 252.167,205.5 260.833,205.5 269.5,205.5C 269.737,206.791 269.404,207.791 268.5,208.5C 260.383,206.845 252.05,205.845 243.5,205.5 Z"/></g>
<g><path style="opacity:1" fill="#fafafa" d="M 109.5,209.5 C 107.015,214.15 103.348,217.65 98.5,220C 73.8333,220.667 49.1667,220.667 24.5,220C 19.2811,217.615 15.6144,213.782 13.5,208.5C 45.1492,206.507 77.1492,205.841 109.5,206.5C 109.5,207.5 109.5,208.5 109.5,209.5 Z"/></g>
<g><path style="opacity:1" fill="#9a9a9a" d="M 23.5,227.5 C 47.474,228.46 71.474,228.794 95.5,228.5C 95.8333,228.5 96.1667,228.5 96.5,228.5C 72.6702,229.663 48.6702,229.83 24.5,229C 23.944,228.617 23.6107,228.117 23.5,227.5 Z"/></g>
<g><path style="opacity:1" fill="#424242" d="M 95.5,228.5 C 96.9187,227.549 98.5853,227.216 100.5,227.5C 100.829,240.344 100.495,253.011 99.5,265.5C 99.5,253.167 99.5,240.833 99.5,228.5C 98.5,228.5 97.5,228.5 96.5,228.5C 96.1667,228.5 95.8333,228.5 95.5,228.5 Z"/></g>
<g><path style="opacity:1" fill="#3f3f3f" d="M 186.5,228.5 C 185.167,228.5 183.833,228.5 182.5,228.5C 182.5,240.833 182.5,253.167 182.5,265.5C 181.505,253.011 181.171,240.344 181.5,227.5C 183.415,227.216 185.081,227.549 186.5,228.5 Z"/></g>
<g><path style="opacity:1" fill="#bbbbbb" d="M 108.5,223.5 C 108.5,237.167 108.5,250.833 108.5,264.5C 130.167,264.5 151.833,264.5 173.5,264.5C 173.5,250.833 173.5,237.167 173.5,223.5C 174.496,237.323 174.829,251.323 174.5,265.5C 152.167,265.5 129.833,265.5 107.5,265.5C 107.171,251.323 107.504,237.323 108.5,223.5 Z"/></g>
</svg>
