<?xml version="1.0" encoding="UTF-8"?>
<!DOCTYPE svg PUBLIC "-//W3C//DTD SVG 1.1//EN" "http://www.w3.org/Graphics/SVG/1.1/DTD/svg11.dtd">
<svg xmlns="http://www.w3.org/2000/svg" version="1.1" width="284px" height="282px" style="shape-rendering:geometricPrecision; text-rendering:geometricPrecision; image-rendering:optimizeQuality; fill-rule:evenodd; clip-rule:evenodd" xmlns:xlink="http://www.w3.org/1999/xlink">
<g><path style="opacity:1" fill="#fdfdfd" d="M -0.5,-0.5 C 94.1667,-0.5 188.833,-0.5 283.5,-0.5C 283.5,93.5 283.5,187.5 283.5,281.5C 188.833,281.5 94.1667,281.5 -0.5,281.5C -0.5,187.5 -0.5,93.5 -0.5,-0.5 Z"/></g>
<g><path style="opacity:1" fill="#080808" d="M 94.5,2.5 C 115.53,1.08836 129.03,10.4217 135,30.5C 136.344,41.9663 133.177,51.9663 125.5,60.5C 130.575,64.4722 135.408,68.8055 140,73.5C 145.008,69.3233 149.841,64.99 154.5,60.5C 139.331,40.349 141.664,22.5157 161.5,7C 177.819,-0.919449 192.319,1.58055 205,14.5C 215.688,30.6567 214.855,46.1567 202.5,61C 228.515,80.1856 242.681,106.019 245,138.5C 246.667,134.833 248.333,131.167 250,127.5C 255.874,120.993 262.707,119.827 270.5,124C 277.05,129.842 278.217,136.676 274,144.5C 267.527,158.918 260.86,173.252 254,187.5C 242.863,199.638 231.363,211.471 219.5,223C 220.126,223.75 220.626,224.584 221,225.5C 221.667,240.167 221.667,254.833 221,269.5C 219.773,271.726 217.939,273.226 215.5,274C 206.167,274.167 196.833,274.333 187.5,274.5C 177.405,274.643 167.405,274.143 157.5,273C 155.951,271.786 154.785,270.286 154,268.5C 153.5,256.838 153.333,245.171 153.5,233.5C 144.5,233.5 135.5,233.5 126.5,233.5C 126.667,245.171 126.5,256.838 126,268.5C 125.215,270.286 124.049,271.786 122.5,273C 102.898,274.63 83.2316,274.963 63.5,274C 62,272.5 60.5,271 59,269.5C 58.3333,254.833 58.3333,240.167 59,225.5C 59.3742,224.584 59.8742,223.75 60.5,223C 48.6369,211.471 37.1369,199.638 26,187.5C 20.3333,175.5 14.6667,163.5 9,151.5C 6.36539,146.263 4.53205,140.763 3.5,135C 6.83443,122.5 14.5011,118.834 26.5,124C 30.4817,128.126 33.315,132.959 35,138.5C 37.8667,106.252 52.0333,80.4183 77.5,61C 65.1455,46.1567 64.3121,30.6567 75,14.5C 80.5541,8.81368 87.0541,4.81368 94.5,2.5 Z"/></g>
<g><path style="opacity:1" fill="#fbfbfb" d="M 95.5,11.5 C 116.52,10.6878 126.687,20.6878 126,41.5C 121.201,56.1608 111.035,62.6608 95.5,61C 77.7787,53.7209 72.612,41.2209 80,23.5C 84.0197,17.9194 89.1864,13.9194 95.5,11.5 Z"/></g>
<g><path style="opacity:1" fill="#fcfcfc" d="M 173.5,11.5 C 194.525,11.3556 204.359,21.689 203,42.5C 197.93,56.878 187.764,63.0446 172.5,61C 158.858,55.8879 152.692,46.0546 154,31.5C 155.598,26.4676 158.098,21.9676 161.5,18C 165.434,15.5361 169.434,13.3694 173.5,11.5 Z"/></g>
<g><path style="opacity:1" fill="#fbfbfb" d="M 84.5,66.5 C 95.3398,71.7976 106.173,71.7976 117,66.5C 121.624,69.2938 125.791,72.6272 129.5,76.5C 108.733,87.3588 103.399,103.525 113.5,125C 101.852,138.206 95.5183,153.706 94.5,171.5C 85.1215,169.157 77.4548,164.323 71.5,157C 70.4981,149.499 70.6648,141.999 72,134.5C 73.8994,123.568 76.7328,112.901 80.5,102.5C 78.8597,97.0109 76.0264,96.3443 72,100.5C 65.9366,116.982 62.1033,133.982 60.5,151.5C 55.2687,149.091 50.1021,149.091 45,151.5C 43.1178,115.943 56.2844,87.6092 84.5,66.5 Z"/></g>
<g><path style="opacity:1" fill="#fbfbfb" d="M 162.5,66.5 C 173.111,71.7311 183.777,71.7311 194.5,66.5C 224.062,86.9644 237.562,115.298 235,151.5C 229.883,148.963 224.717,148.963 219.5,151.5C 217.897,133.982 214.063,116.982 208,100.5C 206.01,97.2781 203.51,96.7781 200.5,99C 199.409,101.064 199.242,103.231 200,105.5C 207.623,122.886 210.123,140.886 207.5,159.5C 200.808,165.346 193.141,169.346 184.5,171.5C 184.475,153.627 178.475,138.127 166.5,125C 176.601,103.525 171.267,87.3588 150.5,76.5C 154.227,72.7668 158.227,69.4335 162.5,66.5 Z"/></g>
<g><path style="opacity:1" fill="#fcfcfc" d="M 133.5,84.5 C 153.3,82.803 162.8,91.803 162,111.5C 156.354,127.388 145.52,132.555 129.5,127C 116.67,117.838 114.17,106.338 122,92.5C 125.482,89.1608 129.315,86.4942 133.5,84.5 Z"/></g>
<g><path style="opacity:1" fill="#fbfbfb" d="M 107.5,204.5 C 107.5,209.5 107.5,214.5 107.5,219.5C 95.1667,219.5 82.8333,219.5 70.5,219.5C 57.5059,207.339 45.0059,194.672 33,181.5C 26.3333,166.833 19.6667,152.167 13,137.5C 12.6597,132.178 15.1597,130.011 20.5,131C 21.3333,131.833 22.1667,132.667 23,133.5C 27.6201,144.703 32.6201,155.703 38,166.5C 47.1363,176.637 56.6363,186.47 66.5,196C 72.2451,196.263 74.0784,193.763 72,188.5C 62.8027,179.637 53.9694,170.47 45.5,161C 48.5464,158.826 51.8798,158.159 55.5,159C 62.4824,163.163 69.1491,167.829 75.5,173C 82.2019,176.34 88.8685,179.673 95.5,183C 102.233,188.632 106.233,195.799 107.5,204.5 Z"/></g>
<g><path style="opacity:1" fill="#fbfbfb" d="M 209.5,219.5 C 197.167,219.5 184.833,219.5 172.5,219.5C 172.5,214.833 172.5,210.167 172.5,205.5C 173.478,196.376 177.478,188.876 184.5,183C 191.131,179.673 197.798,176.34 204.5,173C 210.851,167.829 217.518,163.163 224.5,159C 228.156,158.164 231.49,158.831 234.5,161C 226.031,170.47 217.197,179.637 208,188.5C 205.922,193.763 207.755,196.263 213.5,196C 223.364,186.47 232.864,176.637 242,166.5C 247.38,155.703 252.38,144.703 257,133.5C 260.333,129.5 263.667,129.5 267,133.5C 267.667,134.833 267.667,136.167 267,137.5C 260.333,152.167 253.667,166.833 247,181.5C 234.994,194.672 222.494,207.339 209.5,219.5 Z"/></g>
<g><path style="opacity:1" fill="#fcfcfc" d="M 119.5,132.5 C 124.058,134.412 128.724,136.245 133.5,138C 135.167,138.167 136.833,138.333 138.5,138.5C 146.259,137.735 153.592,135.902 160.5,133C 171.841,146.023 177.008,161.19 176,178.5C 173.763,180.647 171.763,182.98 170,185.5C 167.546,176.144 163.546,167.478 158,159.5C 154.21,155.329 151.377,155.829 149.5,161C 151.588,166.009 154.088,170.842 157,175.5C 161.902,190.105 163.735,205.105 162.5,220.5C 159.401,220.092 157.067,221.259 155.5,224C 145.167,224.667 134.833,224.667 124.5,224C 122.691,221.762 120.358,220.595 117.5,220.5C 116.265,205.105 118.098,190.105 123,175.5C 124.934,171.241 127.268,167.241 130,163.5C 131.418,159.558 130.084,157.225 126,156.5C 121.142,160.518 117.475,165.518 115,171.5C 113.517,176.287 111.85,180.954 110,185.5C 106.464,182.331 104.297,178.498 103.5,174C 104.033,158.221 109.367,144.388 119.5,132.5 Z"/></g>
<g><path style="opacity:1" fill="#a6a6a6" d="M 107.5,204.5 C 108.488,209.64 108.821,214.974 108.5,220.5C 95.6557,220.829 82.989,220.495 70.5,219.5C 82.8333,219.5 95.1667,219.5 107.5,219.5C 107.5,214.5 107.5,209.5 107.5,204.5 Z"/></g>
<g><path style="opacity:1" fill="#a6a6a6" d="M 172.5,205.5 C 172.5,210.167 172.5,214.833 172.5,219.5C 184.833,219.5 197.167,219.5 209.5,219.5C 197.011,220.495 184.344,220.829 171.5,220.5C 171.179,215.305 171.513,210.305 172.5,205.5 Z"/></g>
<g><path style="opacity:1" fill="#fcfcfc" d="M 67.5,229.5 C 84.1667,229.5 100.833,229.5 117.5,229.5C 117.5,241.5 117.5,253.5 117.5,265.5C 100.833,265.5 84.1667,265.5 67.5,265.5C 67.5,253.5 67.5,241.5 67.5,229.5 Z"/></g>
<g><path style="opacity:1" fill="#fcfcfc" d="M 162.5,229.5 C 179.167,229.5 195.833,229.5 212.5,229.5C 212.5,241.5 212.5,253.5 212.5,265.5C 195.833,265.5 179.167,265.5 162.5,265.5C 162.5,253.5 162.5,241.5 162.5,229.5 Z"/></g>
<g><path style="opacity:1" fill="#0b0b0b" d="M 102.5,242.5 C 105.734,242.205 108.734,242.871 111.5,244.5C 113.007,246.969 112.673,249.135 110.5,251C 107.5,251.667 104.5,251.667 101.5,251C 98.6655,247.695 98.9988,244.862 102.5,242.5 Z"/></g>
<g><path style="opacity:1" fill="#0c0c0c" d="M 170.5,242.5 C 173.649,242.211 176.649,242.711 179.5,244C 180.982,246.592 180.648,248.925 178.5,251C 175.5,251.667 172.5,251.667 169.5,251C 166.83,247.838 167.163,245.005 170.5,242.5 Z"/></g>
</svg>
