<?xml version="1.0" encoding="UTF-8"?>
<!DOCTYPE svg PUBLIC "-//W3C//DTD SVG 1.1//EN" "http://www.w3.org/Graphics/SVG/1.1/DTD/svg11.dtd">
<svg xmlns="http://www.w3.org/2000/svg" version="1.1" width="270px" height="277px" style="shape-rendering:geometricPrecision; text-rendering:geometricPrecision; image-rendering:optimizeQuality; fill-rule:evenodd; clip-rule:evenodd" xmlns:xlink="http://www.w3.org/1999/xlink">
<g><path style="opacity:1" fill="#fdfdfd" d="M -0.5,-0.5 C 89.5,-0.5 179.5,-0.5 269.5,-0.5C 269.5,91.8333 269.5,184.167 269.5,276.5C 179.5,276.5 89.5,276.5 -0.5,276.5C -0.5,184.167 -0.5,91.8333 -0.5,-0.5 Z"/></g>
<g><path style="opacity:1" fill="#0a0a0a" d="M 205.5,1.5 C 217.686,1.50499 229.019,4.67166 239.5,11C 244.869,11.9054 250.202,12.572 255.5,13C 258.806,18.7023 260.973,24.8689 262,31.5C 266.288,67.4139 253.455,95.2472 223.5,115C 232.752,140.603 232.752,166.27 223.5,192C 226.653,195.822 229.82,199.655 233,203.5C 233.706,205.971 233.373,208.305 232,210.5C 223.5,219 215,227.5 206.5,236C 202,236.833 200.167,235 201,230.5C 209.167,222.333 217.333,214.167 225.5,206C 218.833,199.333 212.167,192.667 205.5,186C 204.833,185.333 204.167,185.333 203.5,186C 183.986,205.347 164.653,224.847 145.5,244.5C 152.152,251.652 158.985,258.652 166,265.5C 173.833,257.667 181.667,249.833 189.5,242C 193.968,241.304 195.802,243.137 195,247.5C 186.47,256.364 177.637,264.864 168.5,273C 166.5,273.667 164.5,273.667 162.5,273C 157.814,269.312 153.481,265.312 149.5,261C 138.892,262.085 128.226,262.918 117.5,263.5C 108.1,263.516 98.9336,262.183 90,259.5C 85.8333,263.667 81.6667,267.833 77.5,272C 74.9699,273.422 72.3033,273.755 69.5,273C 47.7749,252.608 26.6082,231.442 6,209.5C 5.33333,207.167 5.33333,204.833 6,202.5C 9.54938,199.287 12.7161,195.787 15.5,192C -1.79969,135.969 13.5336,91.3018 61.5,58C 93.5139,40.2383 126.681,37.7383 161,50.5C 160.412,38.0291 162.412,26.0291 167,14.5C 169.912,11.2181 173.412,10.5514 177.5,12.5C 187.125,9.34568 196.459,5.67901 205.5,1.5 Z"/></g>
<g><path style="opacity:1" fill="#fafafa" d="M 206.5,9.5 C 210.182,9.3347 213.848,9.50137 217.5,10C 225.731,13.6162 234.064,16.9495 242.5,20C 245.099,20.769 247.599,20.6023 250,19.5C 261.933,59.3874 250.099,89.8874 214.5,111C 212.029,111.706 209.695,111.373 207.5,110C 174.173,88.8811 162.506,59.0478 172.5,20.5C 184.659,19.2243 195.992,15.5577 206.5,9.5 Z"/></g>
<g><path style="opacity:1" fill="#0c0c0c" d="M 207.5,23.5 C 225.001,22.9009 236.668,30.7342 242.5,47C 241.204,50.1069 238.871,51.1069 235.5,50C 228.462,33.0982 216.462,28.0982 199.5,35C 187.821,43.9955 185.321,55.1622 192,68.5C 201.433,79.2684 212.6,81.435 225.5,75C 229.802,71.3878 233.135,67.0545 235.5,62C 237.701,61.1751 239.534,61.6751 241,63.5C 240.983,69.0591 238.817,73.7258 234.5,77.5C 225.677,85.4581 215.343,88.2914 203.5,86C 185.989,79.1292 178.489,66.2959 181,47.5C 185.294,34.3673 194.128,26.3673 207.5,23.5 Z"/></g>
<g><path style="opacity:1" fill="#0f0f0f" d="M 223.5,44.5 C 228,44.1638 229.833,46.1638 229,50.5C 223.5,56 218,61.5 212.5,67C 210.833,67.6667 209.167,67.6667 207.5,67C 203.333,62.8333 199.167,58.6667 195,54.5C 194.638,48.609 197.138,47.109 202.5,50C 204.99,52.6553 207.656,55.1553 210.5,57.5C 215.188,53.479 219.521,49.1456 223.5,44.5 Z"/></g>
<g><path style="opacity:1" fill="#fbfbfb" d="M 103.5,50.5 C 123.631,48.2671 142.964,51.1004 161.5,59C 167.934,86.8722 183.934,107.206 209.5,120C 212.192,120.43 214.859,120.263 217.5,119.5C 224.183,141.845 224.016,164.178 217,186.5C 214.131,183.296 210.965,180.463 207.5,178C 203.705,177.021 200.372,177.854 197.5,180.5C 195.167,178.833 193.167,176.833 191.5,174.5C 197.152,168.348 202.985,162.348 209,156.5C 213.097,148.429 211.93,141.262 205.5,135C 202.464,132.994 199.131,132.16 195.5,132.5C 194.871,121.871 189.205,116.205 178.5,115.5C 178.192,105.192 172.859,99.8591 162.5,99.5C 162.245,89.4116 157.078,84.0782 147,83.5C 144.287,83.411 141.787,84.0776 139.5,85.5C 137.135,82.6498 134.135,80.8164 130.5,80C 116.573,78.6489 102.907,79.6489 89.5,83C 84.3755,86.4109 81.7088,91.2442 81.5,97.5C 71.1957,97.8043 65.8623,103.138 65.5,113.5C 53.0586,114.882 48.0586,121.715 50.5,134C 38.5271,139.126 35.3605,147.626 41,159.5C 44.8333,163.333 48.6667,167.167 52.5,171C 48.9848,174.682 45.3181,178.182 41.5,181.5C 38.6731,177.829 35.0064,176.662 30.5,178C 27.9841,180.683 25.3174,183.183 22.5,185.5C 8.61887,139.967 19.9522,101.8 56.5,71C 70.7813,60.8562 86.448,54.0229 103.5,50.5 Z"/></g>
<g><path style="opacity:1" fill="#f6f6f6" d="M 104.5,87.5 C 112.84,87.3336 121.173,87.5003 129.5,88C 131.116,88.6152 132.449,89.6152 133.5,91C 129.833,94.6667 126.167,98.3333 122.5,102C 118.5,102.667 114.5,102.667 110.5,102C 104.874,98.6126 102.874,93.7793 104.5,87.5 Z"/></g>
<g><path style="opacity:1" fill="#fcfcfc" d="M 144.5,91.5 C 152.775,90.7064 155.942,94.373 154,102.5C 150.949,104.85 150.783,107.35 153.5,110C 157.122,109.955 160.622,109.121 164,107.5C 168.598,107.85 170.764,110.35 170.5,115C 170.333,117.997 169.333,120.663 167.5,123C 168.796,126.107 171.129,127.107 174.5,126C 178.389,122.75 182.222,122.917 186,126.5C 186.875,127.873 187.375,129.373 187.5,131C 186.759,133.806 185.759,136.473 184.5,139C 184.439,140.711 185.106,142.044 186.5,143C 189.759,142.627 192.926,141.793 196,140.5C 203.257,141.679 205.257,145.679 202,152.5C 192,162.5 182,172.5 172,182.5C 170.859,185.857 172.025,187.857 175.5,188.5C 179.079,186.429 182.246,183.762 185,180.5C 187.016,182.684 189.183,184.684 191.5,186.5C 177.833,200.833 163.833,214.833 149.5,228.5C 141.833,221.5 134.5,214.167 127.5,206.5C 128.025,205.808 128.692,205.308 129.5,205C 137.167,204.667 144.833,204.333 152.5,204C 156.385,203.261 160.052,201.927 163.5,200C 166.255,196.748 165.589,194.248 161.5,192.5C 158.618,193.961 155.618,195.127 152.5,196C 144.5,196.333 136.5,196.667 128.5,197C 123.125,198.568 118.125,200.901 113.5,204C 105.333,212.167 97.1667,220.333 89,228.5C 75.2104,214.879 61.7104,201.212 48.5,187.5C 51.8333,183.5 55.5,179.833 59.5,176.5C 70.0712,180.132 77.5712,176.799 82,166.5C 92.9417,170.741 100.608,167.407 105,156.5C 114.76,159.121 121.76,155.788 126,146.5C 126.498,143.518 126.665,140.518 126.5,137.5C 134.691,135.969 139.024,130.969 139.5,122.5C 139.534,119.567 138.701,116.9 137,114.5C 134.317,111.984 131.817,109.317 129.5,106.5C 134.215,101.119 139.215,96.1186 144.5,91.5 Z"/></g>
<g><path style="opacity:1" fill="#f5f5f5" d="M 77.5,105.5 C 81.2194,105.002 84.5527,105.836 87.5,108C 97.3333,117.833 107.167,127.667 117,137.5C 119.367,141.999 118.533,145.832 114.5,149C 111.366,149.79 108.366,149.457 105.5,148C 95.3333,137.833 85.1667,127.667 75,117.5C 72.6957,112.855 73.529,108.855 77.5,105.5 Z"/></g>
<g><path style="opacity:1" fill="#f7f7f7" d="M 93.5,89.5 C 94.5,89.5 95.5,89.5 96.5,89.5C 95.5253,100.693 100.525,107.527 111.5,110C 115.167,110.333 118.833,110.667 122.5,111C 125,113.5 127.5,116 130,118.5C 132.796,124.907 130.796,128.907 124,130.5C 122.373,130.375 120.873,129.875 119.5,129C 110,119.5 100.5,110 91,100.5C 88.8261,96.1927 89.6594,92.5261 93.5,89.5 Z"/></g>
<g><path style="opacity:1" fill="#fbfbfb" d="M 61.5,121.5 C 64.3198,121.248 66.9865,121.748 69.5,123C 78.3333,131.833 87.1667,140.667 96,149.5C 96.9394,158.566 93.1061,161.732 84.5,159C 75.6667,150.167 66.8333,141.333 58,132.5C 56.6624,127.96 57.8291,124.293 61.5,121.5 Z"/></g>
<g><path style="opacity:1" fill="#f6f6f6" d="M 50.5,142.5 C 53.8934,142.062 56.8934,142.895 59.5,145C 63.6667,149.167 67.8333,153.333 72,157.5C 75.4002,167.764 71.9002,171.598 61.5,169C 57,164.5 52.5,160 48,155.5C 45.4668,150.351 46.3001,146.018 50.5,142.5 Z"/></g>
<g><path style="opacity:1" fill="#fdfdfd" d="M 33.5,185.5 C 53.4792,205.145 73.4792,224.812 93.5,244.5C 86.848,251.652 80.0147,258.652 73,265.5C 53.1667,245.667 33.3333,225.833 13.5,206C 20.3693,199.298 27.036,192.465 33.5,185.5 Z"/></g>
<g><path style="opacity:1" fill="#fcfcfc" d="M 117.5,210.5 C 126.427,218.088 135.093,226.088 143.5,234.5C 141.851,236.65 140.018,238.65 138,240.5C 136.631,245.437 137.797,249.604 141.5,253C 126.495,256.333 111.495,256.333 96.5,253C 103.513,246.038 102.846,239.704 94.5,234C 102.369,226.298 110.036,218.465 117.5,210.5 Z"/></g>
</svg>
