<?xml version="1.0" encoding="UTF-8"?>
<!DOCTYPE svg PUBLIC "-//W3C//DTD SVG 1.1//EN" "http://www.w3.org/Graphics/SVG/1.1/DTD/svg11.dtd">
<svg xmlns="http://www.w3.org/2000/svg" version="1.1" width="256px" height="259px" style="shape-rendering:geometricPrecision; text-rendering:geometricPrecision; image-rendering:optimizeQuality; fill-rule:evenodd; clip-rule:evenodd" xmlns:xlink="http://www.w3.org/1999/xlink">
<g><path style="opacity:1" fill="#fefefe" d="M -0.5,-0.5 C 84.8333,-0.5 170.167,-0.5 255.5,-0.5C 255.5,85.8333 255.5,172.167 255.5,258.5C 170.167,258.5 84.8333,258.5 -0.5,258.5C -0.5,172.167 -0.5,85.8333 -0.5,-0.5 Z"/></g>
<g><path style="opacity:1" fill="#080808" d="M 143.5,0.5 C 162.635,-0.359609 173.635,8.64039 176.5,27.5C 175.151,41.3925 167.818,50.2259 154.5,54C 138.138,56.0742 127.638,49.2409 123,33.5C 120.722,16.7041 127.556,5.70407 143.5,0.5 Z"/></g>
<g><path style="opacity:1" fill="#f9f9f9" d="M 143.5,11.5 C 158.823,10.3237 165.989,17.3237 165,32.5C 159.332,43.6889 150.832,46.5222 139.5,41C 129.21,29.531 130.543,19.6976 143.5,11.5 Z"/></g>
<g><path style="opacity:1" fill="#080808" d="M 100.5,33.5 C 110.243,31.6896 118.076,34.6896 124,42.5C 141.667,69.5 159.333,96.5 177,123.5C 179.576,131.613 177.743,138.613 171.5,144.5C 180.484,179.768 189.15,215.102 197.5,250.5C 193.649,251.029 190.149,250.362 187,248.5C 178.509,214.871 170.176,181.204 162,147.5C 156.316,146.657 151.65,143.99 148,139.5C 137.581,123.66 126.914,107.993 116,92.5C 109.231,106.008 105.898,120.342 106,135.5C 114.247,146.993 122.247,158.66 130,170.5C 136,189.167 142,207.833 148,226.5C 149.864,242.635 142.697,250.468 126.5,250C 121.451,248.283 117.618,245.116 115,240.5C 110.152,225.44 105.152,210.44 100,195.5C 94.4184,209.91 89.4184,224.577 85,239.5C 78.5993,250.522 69.7659,253.022 58.5,247C 52.9525,242.024 50.7858,235.858 52,228.5C 59.403,206.124 66.903,183.791 74.5,161.5C 69.507,154.998 64.6737,148.331 60,141.5C 57.5785,134.015 56.9118,126.348 58,118.5C 62.1884,99.6011 68.1884,81.2677 76,63.5C 81.1563,50.8624 89.3229,40.8624 100.5,33.5 Z"/></g>
<g><path style="opacity:1" fill="#fafafa" d="M 104.5,43.5 C 108.883,43.3481 112.383,45.0148 115,48.5C 133.174,75.4862 150.674,102.82 167.5,130.5C 164.871,137.446 161.038,138.112 156,132.5C 143.5,114 131,95.5 118.5,77C 115.281,74.9548 112.448,75.4548 110,78.5C 99.0553,97.0031 94.0553,117.003 95,138.5C 103,149.833 111,161.167 119,172.5C 125.802,192.407 132.302,212.407 138.5,232.5C 137.006,238.25 133.339,240.416 127.5,239C 125.951,237.786 124.785,236.286 124,234.5C 118.4,215.699 112.4,197.032 106,178.5C 95.3685,166.2 84.3685,154.2 73,142.5C 68.6658,136.498 66.9991,129.831 68,122.5C 72.7871,98.8008 81.1205,76.4675 93,55.5C 96.3635,50.9715 100.197,46.9715 104.5,43.5 Z"/></g>
<g><path style="opacity:1" fill="#f9f9f9" d="M 82.5,170.5 C 86.7905,172.79 90.1238,176.124 92.5,180.5C 86.513,198.78 80.6796,217.114 75,235.5C 72.9473,239.292 69.7806,240.458 65.5,239C 62.8059,236.347 61.9726,233.18 63,229.5C 70.006,209.982 76.506,190.315 82.5,170.5 Z"/></g>
</svg>
