<?xml version="1.0" encoding="UTF-8"?>
<!DOCTYPE svg PUBLIC "-//W3C//DTD SVG 1.1//EN" "http://www.w3.org/Graphics/SVG/1.1/DTD/svg11.dtd">
<svg xmlns="http://www.w3.org/2000/svg" version="1.1" width="271px" height="259px" style="shape-rendering:geometricPrecision; text-rendering:geometricPrecision; image-rendering:optimizeQuality; fill-rule:evenodd; clip-rule:evenodd" xmlns:xlink="http://www.w3.org/1999/xlink">
<g><path style="opacity:1" fill="#fefefe" d="M -0.5,-0.5 C 89.8333,-0.5 180.167,-0.5 270.5,-0.5C 270.5,85.8333 270.5,172.167 270.5,258.5C 180.167,258.5 89.8333,258.5 -0.5,258.5C -0.5,172.167 -0.5,85.8333 -0.5,-0.5 Z"/></g>
<g><path style="opacity:1" fill="#222222" d="M 118.5,57.5 C 118.755,59.9674 119.755,61.9674 121.5,63.5C 125.452,89.4351 115.452,107.602 91.5,118C 77.3087,122.635 63.9754,120.969 51.5,113C 30.5229,95.1148 26.3562,73.9481 39,49.5C 51.9075,32.196 68.9075,26.196 90,31.5C 103.177,36.1792 112.677,44.8458 118.5,57.5 Z"/></g>
<g><path style="opacity:1" fill="#222222" d="M 211.5,115.5 C 208.843,115.935 206.509,116.935 204.5,118.5C 177.219,123.943 158.052,113.943 147,88.5C 145.277,80.1742 145.111,71.8408 146.5,63.5C 148.584,60.9466 149.917,57.9466 150.5,54.5C 162.464,33.2736 180.464,25.6069 204.5,31.5C 234.95,45.3376 243.45,67.6709 230,98.5C 225.39,105.884 219.223,111.55 211.5,115.5 Z"/></g>
<g><path style="opacity:1" fill="#bdbdbd" d="M 92.5,38.5 C 82.1438,35.9192 71.8105,35.9192 61.5,38.5C 66.0796,36.061 71.0796,35.061 76.5,35.5C 82.227,35.0982 87.5603,36.0982 92.5,38.5 Z"/></g>
<g><path style="opacity:1" fill="#c7c7c7" d="M 202.5,37.5 C 193.714,35.887 185.047,36.2203 176.5,38.5C 177.842,37.207 179.509,36.3736 181.5,36C 184.5,35.8333 187.5,35.6667 190.5,35.5C 194.797,35.2783 198.797,35.945 202.5,37.5 Z"/></g>
<g><path style="opacity:1" fill="#f9f9f9" d="M 92.5,38.5 C 102.865,42.5339 109.865,49.8672 113.5,60.5C 116.028,70.8062 116.028,81.1395 113.5,91.5C 98.974,115.084 79.3073,120.584 54.5,108C 48.4822,103.159 43.8155,97.3261 40.5,90.5C 39.3804,85.0649 38.7137,79.5649 38.5,74C 38.571,68.3003 39.571,62.8003 41.5,57.5C 45.6099,48.4502 52.2766,42.1169 61.5,38.5C 71.8105,35.9192 82.1438,35.9192 92.5,38.5 Z"/></g>
<g><path style="opacity:1" fill="#f8f8f8" d="M 202.5,37.5 C 208.719,39.0096 214.053,42.0096 218.5,46.5C 219.08,48.7488 220.413,50.4154 222.5,51.5C 224.316,53.1184 225.649,55.1184 226.5,57.5C 227.256,61.767 228.589,65.767 230.5,69.5C 231.796,92.0244 221.796,106.858 200.5,114C 193.42,114.795 186.42,114.628 179.5,113.5C 177.967,111.755 175.967,110.755 173.5,110.5C 164.827,106.494 158.494,100.16 154.5,91.5C 151.51,80.039 151.844,68.7057 155.5,57.5C 159.629,48.0396 166.629,41.7063 176.5,38.5C 185.047,36.2203 193.714,35.887 202.5,37.5 Z"/></g>
<g><path style="opacity:1" fill="#a2a2a2" d="M 218.5,46.5 C 220.587,47.5846 221.92,49.2512 222.5,51.5C 220.413,50.4154 219.08,48.7488 218.5,46.5 Z"/></g>
<g><path style="opacity:1" fill="#5f5f5f" d="M 76.5,59.5 C 79.6399,58.3592 82.9733,58.1925 86.5,59C 87.3802,60.3561 87.7135,61.8561 87.5,63.5C 86.7515,62.469 86.0848,61.3024 85.5,60C 82.5184,59.502 79.5184,59.3354 76.5,59.5 Z"/></g>
<g><path style="opacity:1" fill="#767676" d="M 118.5,57.5 C 120.245,59.0326 121.245,61.0326 121.5,63.5C 119.755,61.9674 118.755,59.9674 118.5,57.5 Z"/></g>
<g><path style="opacity:1" fill="#818181" d="M 150.5,54.5 C 149.917,57.9466 148.584,60.9466 146.5,63.5C 147.083,60.0534 148.416,57.0534 150.5,54.5 Z"/></g>
<g><path style="opacity:1" fill="#262626" d="M 62.5,64.5 C 62.5,73.5 62.5,82.5 62.5,91.5C 60.1667,91.5 57.8333,91.5 55.5,91.5C 55.5,82.5 55.5,73.5 55.5,64.5C 52.7131,63.5233 49.7131,63.19 46.5,63.5C 46.5,62.1667 46.5,60.8333 46.5,59.5C 54.8333,59.5 63.1667,59.5 71.5,59.5C 71.5,60.8333 71.5,62.1667 71.5,63.5C 68.2869,63.19 65.2869,63.5233 62.5,64.5 Z"/></g>
<g><path style="opacity:1" fill="#1e1e1e" d="M 76.5,59.5 C 79.5184,59.3354 82.5184,59.502 85.5,60C 86.0848,61.3024 86.7515,62.469 87.5,63.5C 88.9781,68.7476 90.1447,74.081 91,79.5C 91.414,79.9574 91.914,80.2907 92.5,80.5C 93.4287,79.3112 93.762,77.9778 93.5,76.5C 94.7886,70.7249 96.4553,65.0583 98.5,59.5C 101.5,59.5 104.5,59.5 107.5,59.5C 107.5,70.1667 107.5,80.8333 107.5,91.5C 105.833,91.5 104.167,91.5 102.5,91.5C 102.831,83.4723 102.498,75.4723 101.5,67.5C 100.614,68.325 100.281,69.325 100.5,70.5C 98.706,77.4703 97.0393,84.4703 95.5,91.5C 93.1667,91.5 90.8333,91.5 88.5,91.5C 88.702,89.0504 88.3686,86.717 87.5,84.5C 87.5905,81.8478 86.9238,79.5145 85.5,77.5C 84.7337,73.8375 83.9003,70.1708 83,66.5C 82.5003,74.8267 82.3336,83.16 82.5,91.5C 80.5,91.5 78.5,91.5 76.5,91.5C 76.5,80.8333 76.5,70.1667 76.5,59.5 Z"/></g>
<g><path style="opacity:1" fill="#808080" d="M 98.5,59.5 C 101.625,58.5206 104.958,58.1872 108.5,58.5C 108.828,69.6794 108.495,80.6794 107.5,91.5C 107.5,80.8333 107.5,70.1667 107.5,59.5C 104.5,59.5 101.5,59.5 98.5,59.5 Z"/></g>
<g><path style="opacity:1" fill="#1f1f1f" d="M 179.5,60.5 C 179.5,62.1667 179.5,63.8333 179.5,65.5C 178.5,65.5 177.5,65.5 176.5,65.5C 174.034,64.3659 171.367,64.1993 168.5,65C 167.944,65.3826 167.611,65.8826 167.5,66.5C 168.874,71.3899 172.208,74.2233 177.5,75C 179.141,76.129 180.141,77.629 180.5,79.5C 180.5,81.8333 180.5,84.1667 180.5,86.5C 179.284,88.4509 177.618,89.9509 175.5,91C 170.316,91.8163 165.316,91.6497 160.5,90.5C 160.205,88.2646 160.539,86.2646 161.5,84.5C 161.918,85.2216 162.584,85.7216 163.5,86C 166.5,86.6667 169.5,86.6667 172.5,86C 174.527,84.6043 174.86,82.9376 173.5,81C 167.834,79.4794 163.5,76.3127 160.5,71.5C 160.401,68.7628 160.735,66.0961 161.5,63.5C 162.343,61.8267 163.676,60.66 165.5,60C 170.352,59.1849 175.019,59.3516 179.5,60.5 Z"/></g>
<g><path style="opacity:1" fill="#5b5b5b" d="M 212.5,60.5 C 215.962,59.5184 219.629,59.185 223.5,59.5C 223.5,70.1667 223.5,80.8333 223.5,91.5C 220.833,91.5 218.167,91.5 215.5,91.5C 215.825,83.9809 215.492,76.6476 214.5,69.5C 214.56,68.9569 214.893,68.6236 215.5,68.5C 216.497,75.8032 216.831,83.1365 216.5,90.5C 218.5,90.5 220.5,90.5 222.5,90.5C 222.5,80.5 222.5,70.5 222.5,60.5C 219.167,60.5 215.833,60.5 212.5,60.5 Z"/></g>
<g><path style="opacity:1" fill="#a8a8a8" d="M 226.5,57.5 C 228.806,61.0845 230.139,65.0845 230.5,69.5C 228.589,65.767 227.256,61.767 226.5,57.5 Z"/></g>
<g><path style="opacity:1" fill="#1c1c1c" d="M 197.5,60.5 C 197.328,61.4916 197.662,62.1583 198.5,62.5C 198.41,65.1522 199.076,67.4855 200.5,69.5C 201.738,71.2143 202.405,73.2143 202.5,75.5C 203.219,77.7638 203.552,80.0971 203.5,82.5C 204.5,82.5 205.5,82.5 206.5,82.5C 206.517,80.4352 206.85,78.4352 207.5,76.5C 208.551,70.9576 210.218,65.6243 212.5,60.5C 215.833,60.5 219.167,60.5 222.5,60.5C 222.5,70.5 222.5,80.5 222.5,90.5C 220.5,90.5 218.5,90.5 216.5,90.5C 216.831,83.1365 216.497,75.8032 215.5,68.5C 214.893,68.6236 214.56,68.9569 214.5,69.5C 213.5,73.5 212.5,77.5 211.5,81.5C 209.271,84.3538 207.938,87.6871 207.5,91.5C 205.5,91.5 203.5,91.5 201.5,91.5C 199.412,84.3453 197.078,77.3453 194.5,70.5C 194.785,68.712 194.452,67.0453 193.5,65.5C 192.502,73.8068 192.169,82.1401 192.5,90.5C 190.833,90.5 189.167,90.5 187.5,90.5C 187.5,80.5 187.5,70.5 187.5,60.5C 190.833,60.5 194.167,60.5 197.5,60.5 Z"/></g>
<g><path style="opacity:1" fill="#6f6f6f" d="M 62.5,64.5 C 65.2869,63.5233 68.2869,63.19 71.5,63.5C 71.5,62.1667 71.5,60.8333 71.5,59.5C 63.1667,59.5 54.8333,59.5 46.5,59.5C 46.5,60.8333 46.5,62.1667 46.5,63.5C 49.7131,63.19 52.7131,63.5233 55.5,64.5C 52.1667,64.5 48.8333,64.5 45.5,64.5C 45.5,62.5 45.5,60.5 45.5,58.5C 54.5,58.5 63.5,58.5 72.5,58.5C 72.5,60.5 72.5,62.5 72.5,64.5C 69.1667,64.5 65.8333,64.5 62.5,64.5 Z"/></g>
<g><path style="opacity:1" fill="#b7b7b7" d="M 87.5,63.5 C 88.1174,63.6107 88.6174,63.944 89,64.5C 90.1577,68.7974 91.1577,73.1307 92,77.5C 92.3826,76.944 92.8826,76.6107 93.5,76.5C 93.762,77.9778 93.4287,79.3112 92.5,80.5C 91.914,80.2907 91.414,79.9574 91,79.5C 90.1447,74.081 88.9781,68.7476 87.5,63.5 Z"/></g>
<g><path style="opacity:1" fill="#a2a2a2" d="M 176.5,65.5 C 173.43,65.3677 170.43,65.701 167.5,66.5C 167.611,65.8826 167.944,65.3826 168.5,65C 171.367,64.1993 174.034,64.3659 176.5,65.5 Z"/></g>
<g><path style="opacity:1" fill="#929292" d="M 179.5,60.5 C 180.461,62.2646 180.795,64.2646 180.5,66.5C 178.901,66.7678 177.568,66.4345 176.5,65.5C 177.5,65.5 178.5,65.5 179.5,65.5C 179.5,63.8333 179.5,62.1667 179.5,60.5 Z"/></g>
<g><path style="opacity:1" fill="#7a7a7a" d="M 198.5,62.5 C 199.924,64.5145 200.59,66.8478 200.5,69.5C 199.076,67.4855 198.41,65.1522 198.5,62.5 Z"/></g>
<g><path style="opacity:1" fill="#838383" d="M 161.5,63.5 C 160.735,66.0961 160.401,68.7628 160.5,71.5C 159.848,70.5514 159.514,69.3847 159.5,68C 159.307,65.9919 159.974,64.4919 161.5,63.5 Z"/></g>
<g><path style="opacity:1" fill="#7f7f7f" d="M 102.5,91.5 C 101.833,84.5 101.167,77.5 100.5,70.5C 100.281,69.325 100.614,68.325 101.5,67.5C 102.498,75.4723 102.831,83.4723 102.5,91.5 Z"/></g>
<g><path style="opacity:1" fill="#c1c1c1" d="M 113.5,60.5 C 115.067,61.6808 115.901,63.3474 116,65.5C 116.667,71.8333 116.667,78.1667 116,84.5C 115.61,87.1042 114.776,89.4375 113.5,91.5C 116.028,81.1395 116.028,70.8062 113.5,60.5 Z"/></g>
<g><path style="opacity:1" fill="#bcbcbc" d="M 41.5,57.5 C 39.571,62.8003 38.571,68.3003 38.5,74C 38.7137,79.5649 39.3804,85.0649 40.5,90.5C 38.0982,85.5603 37.0982,80.227 37.5,74.5C 36.8184,68.2417 38.1517,62.575 41.5,57.5 Z"/></g>
<g><path style="opacity:1" fill="#bababa" d="M 155.5,57.5 C 151.844,68.7057 151.51,80.039 154.5,91.5C 152.083,86.3913 151.083,80.8913 151.5,75C 151.667,71.8333 151.833,68.6667 152,65.5C 152.322,62.3337 153.489,59.667 155.5,57.5 Z"/></g>
<g><path style="opacity:1" fill="#656565" d="M 197.5,60.5 C 194.167,60.5 190.833,60.5 187.5,60.5C 187.5,70.5 187.5,80.5 187.5,90.5C 189.167,90.5 190.833,90.5 192.5,90.5C 192.169,82.1401 192.502,73.8068 193.5,65.5C 194.452,67.0453 194.785,68.712 194.5,70.5C 193.509,77.3134 193.175,84.3134 193.5,91.5C 191.167,91.5 188.833,91.5 186.5,91.5C 186.5,80.8333 186.5,70.1667 186.5,59.5C 190.371,59.185 194.038,59.5184 197.5,60.5 Z"/></g>
<g><path style="opacity:1" fill="#959595" d="M 85.5,77.5 C 86.9238,79.5145 87.5905,81.8478 87.5,84.5C 86.0762,82.4855 85.4095,80.1522 85.5,77.5 Z"/></g>
<g><path style="opacity:1" fill="#909090" d="M 202.5,75.5 C 203.966,76.347 204.8,77.6803 205,79.5C 205.236,77.8807 206.069,76.8807 207.5,76.5C 206.85,78.4352 206.517,80.4352 206.5,82.5C 205.5,82.5 204.5,82.5 203.5,82.5C 203.552,80.0971 203.219,77.7638 202.5,75.5 Z"/></g>
<g><path style="opacity:1" fill="#9e9e9e" d="M 180.5,79.5 C 182.96,81.6555 182.96,83.9889 180.5,86.5C 180.5,84.1667 180.5,81.8333 180.5,79.5 Z"/></g>
<g><path style="opacity:1" fill="#8a8a8a" d="M 161.5,84.5 C 160.539,86.2646 160.205,88.2646 160.5,90.5C 159.203,88.3066 159.203,85.9732 160.5,83.5C 161.107,83.6236 161.44,83.9569 161.5,84.5 Z"/></g>
<g><path style="opacity:1" fill="#bababa" d="M 211.5,81.5 C 210.9,84.3319 210.233,87.1652 209.5,90C 209.164,91.0299 208.497,91.5299 207.5,91.5C 207.938,87.6871 209.271,84.3538 211.5,81.5 Z"/></g>
<g><path style="opacity:1" fill="#8a8a8a" d="M 173.5,110.5 C 175.967,110.755 177.967,111.755 179.5,113.5C 177.033,113.245 175.033,112.245 173.5,110.5 Z"/></g>
<g><path style="opacity:1" fill="#a5a5a5" d="M 211.5,115.5 C 209.824,117.834 207.491,118.834 204.5,118.5C 206.509,116.935 208.843,115.935 211.5,115.5 Z"/></g>
<g><path style="opacity:1" fill="#222222" d="M 152.5,144.5 C 152.973,145.906 153.973,146.573 155.5,146.5C 178.602,159.489 186.269,178.823 178.5,204.5C 176.75,205.659 175.75,207.326 175.5,209.5C 170.781,217.886 164.114,224.219 155.5,228.5C 152.06,229.511 148.726,230.511 145.5,231.5C 119.081,235.453 101.414,224.786 92.5,199.5C 91.6423,191.868 91.3089,184.201 91.5,176.5C 101.736,147.371 122.07,136.704 152.5,144.5 Z"/></g>
<g><path style="opacity:1" fill="#838383" d="M 152.5,144.5 C 154.027,144.427 155.027,145.094 155.5,146.5C 153.973,146.573 152.973,145.906 152.5,144.5 Z"/></g>
<g><path style="opacity:1" fill="#f9f9f9" d="M 127.5,149.5 C 136.031,149.037 144.364,150.037 152.5,152.5C 172.012,162.819 178.845,178.819 173,200.5C 161.538,223.386 143.538,230.719 119,222.5C 101.879,212.86 94.879,198.193 98,178.5C 101.342,165.995 108.842,156.995 120.5,151.5C 123.152,151.59 125.485,150.924 127.5,149.5 Z"/></g>
<g><path style="opacity:1" fill="#b8b8b8" d="M 127.5,149.5 C 132.985,148.348 138.651,148.182 144.5,149C 147.666,149.322 150.333,150.489 152.5,152.5C 144.364,150.037 136.031,149.037 127.5,149.5 Z"/></g>
<g><path style="opacity:1" fill="#a3a3a3" d="M 127.5,149.5 C 125.485,150.924 123.152,151.59 120.5,151.5C 122.515,150.076 124.848,149.41 127.5,149.5 Z"/></g>
<g><path style="opacity:1" fill="#a2a2a2" d="M 120.5,162.5 C 120.5,178.833 120.5,195.167 120.5,211.5C 122.833,211.5 125.167,211.5 127.5,211.5C 127.5,204.833 127.5,198.167 127.5,191.5C 130.385,191.194 133.052,191.527 135.5,192.5C 133.167,192.5 130.833,192.5 128.5,192.5C 128.5,199.167 128.5,205.833 128.5,212.5C 125.5,212.5 122.5,212.5 119.5,212.5C 119.17,195.658 119.503,178.992 120.5,162.5 Z"/></g>
<g><path style="opacity:1" fill="#202020" d="M 120.5,162.5 C 128.528,162.169 136.528,162.502 144.5,163.5C 153.912,167.206 156.079,173.54 151,182.5C 148.478,185.022 145.978,187.522 143.5,190C 147.983,196.647 152.65,203.147 157.5,209.5C 157.611,210.117 157.944,210.617 158.5,211C 155.854,211.497 153.187,211.664 150.5,211.5C 145.752,205.024 140.752,198.691 135.5,192.5C 133.052,191.527 130.385,191.194 127.5,191.5C 127.5,198.167 127.5,204.833 127.5,211.5C 125.167,211.5 122.833,211.5 120.5,211.5C 120.5,195.167 120.5,178.833 120.5,162.5 Z"/></g>
<g><path style="opacity:1" fill="#9c9c9c" d="M 139.5,168.5 C 135.833,168.5 132.167,168.5 128.5,168.5C 128.5,174.167 128.5,179.833 128.5,185.5C 131.5,185.5 134.5,185.5 137.5,185.5C 134.375,186.479 131.042,186.813 127.5,186.5C 127.5,180.167 127.5,173.833 127.5,167.5C 131.702,167.183 135.702,167.517 139.5,168.5 Z"/></g>
<g><path style="opacity:1" fill="#f8f8f8" d="M 139.5,168.5 C 145.487,170.607 146.987,174.607 144,180.5C 142.035,182.55 139.868,184.217 137.5,185.5C 134.5,185.5 131.5,185.5 128.5,185.5C 128.5,179.833 128.5,174.167 128.5,168.5C 132.167,168.5 135.833,168.5 139.5,168.5 Z"/></g>
<g><path style="opacity:1" fill="#717171" d="M 91.5,176.5 C 91.3089,184.201 91.6423,191.868 92.5,199.5C 91.7784,199.082 91.2784,198.416 91,197.5C 90.1787,190.321 90.3454,183.321 91.5,176.5 Z"/></g>
<g><path style="opacity:1" fill="#a5a5a5" d="M 178.5,204.5 C 178.408,206.848 177.408,208.514 175.5,209.5C 175.75,207.326 176.75,205.659 178.5,204.5 Z"/></g>
<g><path style="opacity:1" fill="#828282" d="M 157.5,209.5 C 159.048,209.821 159.715,210.821 159.5,212.5C 156.287,212.81 153.287,212.477 150.5,211.5C 153.187,211.664 155.854,211.497 158.5,211C 157.944,210.617 157.611,210.117 157.5,209.5 Z"/></g>
<g><path style="opacity:1" fill="#aaaaaa" d="M 155.5,228.5 C 152.749,230.975 149.416,231.975 145.5,231.5C 148.726,230.511 152.06,229.511 155.5,228.5 Z"/></g>
</svg>
