<?xml version="1.0" encoding="UTF-8"?>
<!DOCTYPE svg PUBLIC "-//W3C//DTD SVG 1.1//EN" "http://www.w3.org/Graphics/SVG/1.1/DTD/svg11.dtd">
<svg xmlns="http://www.w3.org/2000/svg" version="1.1" width="288px" height="244px" style="shape-rendering:geometricPrecision; text-rendering:geometricPrecision; image-rendering:optimizeQuality; fill-rule:evenodd; clip-rule:evenodd" xmlns:xlink="http://www.w3.org/1999/xlink">
<g><path style="opacity:1" fill="#fbfbfb" d="M -0.5,-0.5 C 95.5,-0.5 191.5,-0.5 287.5,-0.5C 287.5,80.8333 287.5,162.167 287.5,243.5C 191.5,243.5 95.5,243.5 -0.5,243.5C -0.5,162.167 -0.5,80.8333 -0.5,-0.5 Z"/></g>
<g><path style="opacity:1" fill="#101010" d="M 117.5,12.5 C 125.434,19.0405 125.434,25.7072 117.5,32.5C 115.558,37.0557 114.892,42.0557 115.5,47.5C 115.159,50.5158 113.993,53.1825 112,55.5C 111.502,58.4816 111.335,61.4816 111.5,64.5C 118.081,65.2401 122.914,68.5735 126,74.5C 127.918,80.3418 129.085,86.3418 129.5,92.5C 129.952,96.1629 130.452,99.8296 131,103.5C 131.278,104.416 131.778,105.082 132.5,105.5C 132.5,107.167 132.5,108.833 132.5,110.5C 135.833,110.5 139.167,110.5 142.5,110.5C 143.372,104.809 144.372,99.1424 145.5,93.5C 146.222,93.0825 146.722,92.4158 147,91.5C 147.497,88.854 147.664,86.1873 147.5,83.5C 148.562,73.3581 153.895,66.6914 163.5,63.5C 165.176,58.5846 164.176,54.2513 160.5,50.5C 159.143,42.7906 159.31,35.124 161,27.5C 163.037,25.2941 165.203,23.2941 167.5,21.5C 172.007,19.8874 176.673,19.2207 181.5,19.5C 186.606,21.3128 190.44,24.6461 193,29.5C 193.667,36.8333 193.667,44.1667 193,51.5C 191.519,52.4709 190.685,53.8042 190.5,55.5C 189.883,55.6107 189.383,55.944 189,56.5C 188.333,58.8333 188.333,61.1667 189,63.5C 192.115,64.9749 195.282,66.3082 198.5,67.5C 201.517,70.1977 203.517,73.5311 204.5,77.5C 205.167,82.1667 205.833,86.8333 206.5,91.5C 209.713,91.81 212.713,91.4767 215.5,90.5C 221.224,80.0579 227.224,69.7245 233.5,59.5C 227.522,49.0782 227.022,38.4116 232,27.5C 236.593,22.2416 242.426,19.5749 249.5,19.5C 253.051,13.9251 258.051,12.0918 264.5,14C 272.069,16.5843 274.569,21.751 272,29.5C 270.333,32.5 268,34.8333 265,36.5C 265.998,45.3265 263.831,53.1599 258.5,60C 263.709,65.2064 267.209,71.373 269,78.5C 269.667,100.167 269.667,121.833 269,143.5C 268.621,146.03 267.787,148.363 266.5,150.5C 265.596,151.209 265.263,152.209 265.5,153.5C 268.939,153.253 272.272,153.586 275.5,154.5C 276.65,159.316 276.816,164.316 276,169.5C 272.494,174.669 267.661,176.669 261.5,175.5C 262.501,181.503 263.501,187.503 264.5,193.5C 264.259,195.898 264.926,197.898 266.5,199.5C 268.018,206.457 269.351,213.457 270.5,220.5C 271.597,224.89 271.597,229.223 270.5,233.5C 268.833,233.5 267.167,233.5 265.5,233.5C 265.737,232.209 265.404,231.209 264.5,230.5C 264.664,227.813 264.497,225.146 264,222.5C 263.722,221.584 263.222,220.918 262.5,220.5C 262.3,217.37 261.634,214.37 260.5,211.5C 260.044,205.939 259.044,200.606 257.5,195.5C 257.59,192.848 256.924,190.515 255.5,188.5C 254.648,184.206 253.982,179.873 253.5,175.5C 244.5,175.5 235.5,175.5 226.5,175.5C 224.962,185.191 223.295,194.858 221.5,204.5C 220.883,204.611 220.383,204.944 220,205.5C 219.304,208.478 218.804,211.478 218.5,214.5C 217.336,220.149 216.169,225.816 215,231.5C 212.667,234.167 210.333,234.167 208,231.5C 208.738,222.738 210.238,214.072 212.5,205.5C 214.245,201.8 215.245,197.8 215.5,193.5C 215.788,190.061 216.454,186.728 217.5,183.5C 219.04,181.162 219.706,178.495 219.5,175.5C 216.287,175.19 213.287,175.523 210.5,176.5C 209.565,181.994 208.898,187.661 208.5,193.5C 206.431,202.262 205.098,211.262 204.5,220.5C 203.902,224.192 202.902,227.859 201.5,231.5C 194.977,233.104 188.643,232.771 182.5,230.5C 181.874,207.353 181.207,184.353 180.5,161.5C 170.833,161.5 161.167,161.5 151.5,161.5C 151.5,182.833 151.5,204.167 151.5,225.5C 154.187,225.336 156.854,225.503 159.5,226C 160.833,228.333 160.833,230.667 159.5,233C 146.167,233.667 132.833,233.667 119.5,233C 115.861,230.904 115.528,228.404 118.5,225.5C 121.167,225.5 123.833,225.5 126.5,225.5C 126.5,203.833 126.5,182.167 126.5,160.5C 117.318,160.173 108.318,160.507 99.5,161.5C 99.665,164.85 99.4983,168.183 99,171.5C 95.9916,174.42 93.4916,174.086 91.5,170.5C 91.6664,161.827 91.4998,153.16 91,144.5C 90.7767,142.119 89.61,140.453 87.5,139.5C 86.4206,137.457 84.754,136.124 82.5,135.5C 81.7375,134.732 80.7375,134.232 79.5,134C 59.1694,133.5 38.8361,133.333 18.5,133.5C 18.1872,137.042 18.5206,140.375 19.5,143.5C 20.8109,147.326 23.1443,150.493 26.5,153C 42.1667,153.333 57.8333,153.667 73.5,154C 74.056,154.383 74.3893,154.883 74.5,155.5C 74.1561,160.122 74.8227,164.455 76.5,168.5C 77.6321,173.76 78.2988,179.093 78.5,184.5C 79.4376,193.692 80.7709,202.692 82.5,211.5C 83.1132,215.937 83.7798,220.27 84.5,224.5C 86.6074,225.468 88.9407,225.802 91.5,225.5C 91.5,211.833 91.5,198.167 91.5,184.5C 91.5587,182.278 92.7253,181.278 95,181.5C 96.7106,181.439 98.044,182.106 99,183.5C 99.6667,198.5 99.6667,213.5 99,228.5C 97.4571,230.378 95.6238,231.878 93.5,233C 88.798,233.828 84.1313,233.662 79.5,232.5C 78.4688,231.3 77.6355,229.966 77,228.5C 76.5711,223.388 75.7378,218.388 74.5,213.5C 74.6975,208.25 74.0308,203.25 72.5,198.5C 71.7455,190.797 70.7455,183.131 69.5,175.5C 66.8333,175.5 64.1667,175.5 61.5,175.5C 62.674,183.196 64.0074,190.862 65.5,198.5C 65.4095,201.152 66.0762,203.485 67.5,205.5C 70.186,214.286 71.3527,223.286 71,232.5C 68.7328,233.935 66.7328,233.602 65,231.5C 63.4157,225.903 62.249,220.236 61.5,214.5C 61.3239,211.273 60.6572,208.273 59.5,205.5C 57.1829,196.232 55.1829,186.899 53.5,177.5C 49.3861,176.174 44.8861,175.507 40,175.5C 35.3205,175.501 30.8205,175.834 26.5,176.5C 25.8333,180.5 25.1667,184.5 24.5,188.5C 23.0762,190.515 22.4095,192.848 22.5,195.5C 20.8993,201.991 19.566,208.657 18.5,215.5C 17.3138,221.229 15.8138,226.896 14,232.5C 10.2525,234.35 8.08584,233.183 7.5,229C 10.9324,211.106 14.5991,193.272 18.5,175.5C 7.96624,177.132 2.96624,172.632 3.5,162C 3.66667,159.5 3.83333,157 4,154.5C 4.38258,153.944 4.88258,153.611 5.5,153.5C 8.5,153.5 11.5,153.5 14.5,153.5C 14.7373,152.209 14.404,151.209 13.5,150.5C 12.5769,148.233 11.7436,145.9 11,143.5C 10.3333,122.5 10.3333,101.5 11,80.5C 11.7216,72.223 15.2216,65.3897 21.5,60C 18.8479,57.152 16.8479,53.9853 15.5,50.5C 15.2487,44.1082 15.582,37.7748 16.5,31.5C 20.7538,22.7063 27.7538,19.2063 37.5,21C 47.3242,24.5016 51.9908,31.5016 51.5,42C 51.7672,48.5819 49.7672,54.4152 45.5,59.5C 47.1491,61.6499 48.9824,63.6499 51,65.5C 55.4743,73.7711 59.641,82.1044 63.5,90.5C 65.1667,90.5 66.8333,90.5 68.5,90.5C 69.0646,84.7176 70.2313,79.0509 72,73.5C 75.5559,68.6107 80.2225,65.2774 86,63.5C 86.7808,58.2615 85.4475,53.5948 82,49.5C 81.1691,42.8085 81.3358,36.1418 82.5,29.5C 84.1398,26.1956 86.4731,23.529 89.5,21.5C 93.25,20.3863 96.9167,19.3863 100.5,18.5C 100.75,16.326 101.75,14.6594 103.5,13.5C 107.961,11.2661 112.627,10.9328 117.5,12.5 Z"/></g>
<g><path style="opacity:1" fill="#767676" d="M 117.5,12.5 C 112.627,10.9328 107.961,11.2661 103.5,13.5C 105.237,10.9879 107.737,9.98786 111,10.5C 112.833,10.6667 114.667,10.8333 116.5,11C 117.056,11.3826 117.389,11.8826 117.5,12.5 Z"/></g>
<g><path style="opacity:1" fill="#676767" d="M 181.5,19.5 C 176.673,19.2207 172.007,19.8874 167.5,21.5C 168.058,20.2101 169.058,19.3768 170.5,19C 174.358,18.1901 178.024,18.3567 181.5,19.5 Z"/></g>
<g><path style="opacity:1" fill="#606060" d="M 100.5,18.5 C 96.9167,19.3863 93.25,20.3863 89.5,21.5C 90.0577,20.2101 91.0577,19.3768 92.5,19C 95.146,18.5026 97.8127,18.3359 100.5,18.5 Z"/></g>
<g><path style="opacity:1" fill="#d5d5d5" d="M 108.5,18.5 C 113.501,17.6714 115.668,19.6714 115,24.5C 111.656,25.242 109.156,23.9087 107.5,20.5C 107.863,19.8165 108.196,19.1499 108.5,18.5 Z"/></g>
<g><path style="opacity:1" fill="#d7d7d7" d="M 258.5,20.5 C 263.984,20.4809 265.65,22.9809 263.5,28C 259.183,27.1938 257.516,24.6938 258.5,20.5 Z"/></g>
<g><path style="opacity:1" fill="#868686" d="M 104.5,28.5 C 100.833,27.1667 97.1667,27.1667 93.5,28.5C 93.6107,27.8826 93.944,27.3826 94.5,27C 97.5,26.3333 100.5,26.3333 103.5,27C 104.056,27.3826 104.389,27.8826 104.5,28.5 Z"/></g>
<g><path style="opacity:1" fill="#858585" d="M 182.5,28.5 C 178.833,27.1667 175.167,27.1667 171.5,28.5C 171.611,27.8826 171.944,27.3826 172.5,27C 175.5,26.3333 178.5,26.3333 181.5,27C 182.056,27.3826 182.389,27.8826 182.5,28.5 Z"/></g>
<g><path style="opacity:1" fill="#ebebeb" d="M 104.5,28.5 C 106.85,30.2133 107.85,32.5466 107.5,35.5C 104.116,35.6604 100.783,35.327 97.5,34.5C 95.4128,34.5393 94.0794,35.5393 93.5,37.5C 94.2209,39.7738 95.5543,41.6071 97.5,43C 100.817,43.4983 104.15,43.665 107.5,43.5C 107.499,51.0033 103.833,54.5033 96.5,54C 93.0267,53.1934 90.86,51.0268 90,47.5C 89.3333,42.1667 89.3333,36.8333 90,31.5C 91.0391,30.2899 92.2058,29.2899 93.5,28.5C 97.1667,27.1667 100.833,27.1667 104.5,28.5 Z"/></g>
<g><path style="opacity:1" fill="#f2f2f2" d="M 182.5,28.5 C 182.833,29.5 183.5,30.1667 184.5,30.5C 184.5,31.8333 184.5,33.1667 184.5,34.5C 182.167,34.5 179.833,34.5 177.5,34.5C 172.593,34.5327 171.26,36.8661 173.5,41.5C 174.025,42.1924 174.692,42.6924 175.5,43C 179.152,43.4986 182.818,43.6653 186.5,43.5C 185.201,52.1631 180.201,55.3297 171.5,53C 170.619,52.2917 169.953,51.4584 169.5,50.5C 167.888,43.3147 168.221,36.3147 170.5,29.5C 170.5,28.8333 170.833,28.5 171.5,28.5C 175.167,27.1667 178.833,27.1667 182.5,28.5 Z"/></g>
<g><path style="opacity:1" fill="#f1f1f1" d="M 255.5,33.5 C 256.4,38.772 256.733,44.1053 256.5,49.5C 254.781,52.2195 252.447,54.2195 249.5,55.5C 246.763,55.5987 244.096,55.2653 241.5,54.5C 238.956,53.2921 237.622,51.2921 237.5,48.5C 237.336,45.8127 237.503,43.146 238,40.5C 239.725,41.464 241.559,42.1307 243.5,42.5C 244.837,43.3149 245.837,44.4815 246.5,46C 249.901,47.1351 251.901,45.9684 252.5,42.5C 252.564,40.4434 251.898,38.7767 250.5,37.5C 250.586,36.5041 250.252,35.6708 249.5,35C 247,34.1667 244.5,33.3333 242,32.5C 240.97,32.1639 240.47,31.4972 240.5,30.5C 246.326,27.3326 251.326,28.3326 255.5,33.5 Z"/></g>
<g><path style="opacity:1" fill="#9f9f9f" d="M 184.5,30.5 C 186.681,35.4932 185.014,37.3265 179.5,36C 178.584,35.7216 177.918,35.2216 177.5,34.5C 179.833,34.5 182.167,34.5 184.5,34.5C 184.5,33.1667 184.5,31.8333 184.5,30.5 Z"/></g>
<g><path style="opacity:1" fill="#9e9e9e" d="M 240.5,30.5 C 240.47,31.4972 240.97,32.1639 242,32.5C 244.5,33.3333 247,34.1667 249.5,35C 250.252,35.6708 250.586,36.5041 250.5,37.5C 247.166,35.3875 243.5,34.0541 239.5,33.5C 239.263,32.209 239.596,31.209 240.5,30.5 Z"/></g>
<g><path style="opacity:1" fill="#f0f0f0" d="M 34.5,45.5 C 36.4523,42.873 39.1189,41.5397 42.5,41.5C 42.5,44.1667 42.5,46.8333 42.5,49.5C 37.0205,58.3283 31.0205,58.6617 24.5,50.5C 23.1667,44.8333 23.1667,39.1667 24.5,33.5C 29.1017,27.7007 34.435,27.034 40.5,31.5C 36.1281,33.4367 31.9615,35.77 28,38.5C 26.2712,44.9347 28.4379,47.268 34.5,45.5 Z"/></g>
<g><path style="opacity:1" fill="#626262" d="M 24.5,33.5 C 23.1667,39.1667 23.1667,44.8333 24.5,50.5C 23.8826,50.3893 23.3826,50.056 23,49.5C 22.3333,44.5 22.3333,39.5 23,34.5C 23.3826,33.944 23.8826,33.6107 24.5,33.5 Z"/></g>
<g><path style="opacity:1" fill="#a7a7a7" d="M 117.5,32.5 C 116.879,37.6021 116.213,42.6021 115.5,47.5C 114.892,42.0557 115.558,37.0557 117.5,32.5 Z"/></g>
<g><path style="opacity:1" fill="#646464" d="M 255.5,33.5 C 256.117,33.6107 256.617,33.944 257,34.5C 257.816,39.6842 257.65,44.6842 256.5,49.5C 256.733,44.1053 256.4,38.772 255.5,33.5 Z"/></g>
<g><path style="opacity:1" fill="#9a9a9a" d="M 16.5,31.5 C 15.582,37.7748 15.2487,44.1082 15.5,50.5C 14.3475,44.6812 14.1808,38.6812 15,32.5C 15.3826,31.944 15.8826,31.6107 16.5,31.5 Z"/></g>
<g><path style="opacity:1" fill="#9d9d9d" d="M 243.5,42.5 C 241.559,42.1307 239.725,41.464 238,40.5C 237.503,43.146 237.336,45.8127 237.5,48.5C 236.523,45.7131 236.19,42.7131 236.5,39.5C 239.346,39.5516 241.68,40.5516 243.5,42.5 Z"/></g>
<g><path style="opacity:1" fill="#a8a8a8" d="M 42.5,49.5 C 42.5,46.8333 42.5,44.1667 42.5,41.5C 39.1189,41.5397 36.4523,42.873 34.5,45.5C 35.9576,41.4312 38.9576,39.7645 43.5,40.5C 43.81,43.7131 43.4767,46.7131 42.5,49.5 Z"/></g>
<g><path style="opacity:1" fill="#a8a8a8" d="M 170.5,29.5 C 168.221,36.3147 167.888,43.3147 169.5,50.5C 168.883,50.3893 168.383,50.056 168,49.5C 167.333,43.5 167.333,37.5 168,31.5C 168.708,30.6195 169.542,29.9528 170.5,29.5 Z"/></g>
<g><path style="opacity:1" fill="#7a7a7a" d="M 241.5,54.5 C 244.096,55.2653 246.763,55.5987 249.5,55.5C 248.551,56.1524 247.385,56.4857 246,56.5C 243.992,56.6932 242.492,56.0265 241.5,54.5 Z"/></g>
<g><path style="opacity:1" fill="#c1c1c1" d="M 190.5,55.5 C 188.945,62.2776 191.612,65.2776 198.5,64.5C 198.5,65.5 198.5,66.5 198.5,67.5C 195.282,66.3082 192.115,64.9749 189,63.5C 188.333,61.1667 188.333,58.8333 189,56.5C 189.383,55.944 189.883,55.6107 190.5,55.5 Z"/></g>
<g><path style="opacity:1" fill="#6c6c6c" d="M 172.5,62.5 C 175.287,61.5233 178.287,61.19 181.5,61.5C 181.784,63.4147 181.451,65.0813 180.5,66.5C 180.5,65.1667 180.5,63.8333 180.5,62.5C 177.833,62.5 175.167,62.5 172.5,62.5 Z"/></g>
<g><path style="opacity:1" fill="#a4a4a4" d="M 101.5,65.5 C 101.03,64.3065 100.03,63.6399 98.5,63.5C 96.0239,63.2326 95.3572,63.8993 96.5,65.5C 94.8235,64.8166 94.1568,63.4832 94.5,61.5C 97.5,61.5 100.5,61.5 103.5,61.5C 103.771,63.3797 103.104,64.713 101.5,65.5 Z"/></g>
<g><path style="opacity:1" fill="#f3f3f3" d="M 101.5,65.5 C 99.6676,67.9572 98.0009,67.9572 96.5,65.5C 95.3572,63.8993 96.0239,63.2326 98.5,63.5C 100.03,63.6399 101.03,64.3065 101.5,65.5 Z"/></g>
<g><path style="opacity:1" fill="#585858" d="M 249.5,64.5 C 246.43,64.3677 243.43,64.701 240.5,65.5C 240.611,64.8826 240.944,64.3826 241.5,64C 244.367,63.1993 247.034,63.3659 249.5,64.5 Z"/></g>
<g><path style="opacity:1" fill="#f5f5f5" d="M 60.5,97.5 C 65.7966,99.8743 71.4632,100.874 77.5,100.5C 82.5584,101.422 87.5584,102.922 92.5,105C 94.607,106.264 95.607,108.097 95.5,110.5C 82.15,110.833 68.8167,110.499 55.5,109.5C 50.2688,102.992 44.6021,96.9923 38.5,91.5C 34.0461,90.1168 32.2127,91.7834 33,96.5C 39,103.167 45,109.833 51,116.5C 51.498,119.482 51.6646,122.482 51.5,125.5C 40.5,125.5 29.5,125.5 18.5,125.5C 18.3334,109.83 18.5001,94.1631 19,78.5C 22.1071,67.019 29.2738,62.8523 40.5,66C 41.6667,67.1667 42.8333,68.3333 44,69.5C 49.2743,79.0611 54.7743,88.3945 60.5,97.5 Z"/></g>
<g><path style="opacity:1" fill="#eaeaea" d="M 172.5,62.5 C 175.167,62.5 177.833,62.5 180.5,62.5C 180.5,63.8333 180.5,65.1667 180.5,66.5C 178.052,67.4731 175.385,67.8064 172.5,67.5C 172.5,65.8333 172.5,64.1667 172.5,62.5 Z"/></g>
<g><path style="opacity:1" fill="#f6f6f6" d="M 249.5,64.5 C 255.266,67.4455 259.099,72.1121 261,78.5C 261.5,94.1631 261.667,109.83 261.5,125.5C 259.473,125.338 257.473,125.505 255.5,126C 252.833,128.333 252.833,130.667 255.5,133C 257.473,133.495 259.473,133.662 261.5,133.5C 263.188,141.962 260.354,148.295 253,152.5C 237.532,153.311 222.032,153.811 206.5,154C 205.944,154.383 205.611,154.883 205.5,155.5C 204.028,159.919 203.362,164.586 203.5,169.5C 202.279,174.386 201.612,179.386 201.5,184.5C 200.883,184.611 200.383,184.944 200,185.5C 199.243,191.149 198.743,196.816 198.5,202.5C 197.833,208.5 197.167,214.5 196.5,220.5C 195.566,221.568 195.232,222.901 195.5,224.5C 193.5,224.5 191.5,224.5 189.5,224.5C 189.5,197.833 189.5,171.167 189.5,144.5C 190.956,139.75 193.956,136.25 198.5,134C 213.5,133.667 228.5,133.333 243.5,133C 247.037,131.174 247.371,128.84 244.5,126C 238.843,125.501 233.176,125.334 227.5,125.5C 227.335,122.482 227.502,119.482 228,116.5C 234.699,110.136 241.032,103.469 247,96.5C 247.833,92 246,90.1667 241.5,91C 235.959,97.2202 230.292,103.387 224.5,109.5C 211.183,110.499 197.85,110.833 184.5,110.5C 184.744,107.737 186.077,105.571 188.5,104C 191.923,102.096 195.59,101.263 199.5,101.5C 204.124,101.237 208.458,100.237 212.5,98.5C 215.747,98.5848 218.581,97.5848 221,95.5C 226,86.8333 231,78.1667 236,69.5C 237.371,67.9586 238.871,66.6253 240.5,65.5C 243.43,64.701 246.43,64.3677 249.5,64.5 Z"/></g>
<g><path style="opacity:1" fill="#686868" d="M 106.5,71.5 C 108.953,70.3549 111.287,70.6883 113.5,72.5C 111.139,72.3259 108.806,71.9926 106.5,71.5 Z"/></g>
<g><path style="opacity:1" fill="#f3f3f3" d="M 106.5,71.5 C 108.806,71.9926 111.139,72.3259 113.5,72.5C 114.694,73.2719 115.694,74.2719 116.5,75.5C 117.802,80.9782 119.468,86.3115 121.5,91.5C 122.092,94.1272 122.425,96.7938 122.5,99.5C 122.565,102.428 123.232,105.095 124.5,107.5C 124.5,108.5 124.5,109.5 124.5,110.5C 122.5,110.5 120.5,110.5 118.5,110.5C 117.521,103.726 116.021,97.0594 114,90.5C 110.507,87.4982 108.007,88.1649 106.5,92.5C 108.153,98.4435 109.486,104.443 110.5,110.5C 108.076,110.808 105.743,110.474 103.5,109.5C 102.038,102.701 98.0377,98.0346 91.5,95.5C 91.4458,90.6048 89.1125,88.4382 84.5,89C 82.609,91.8016 79.9423,92.9682 76.5,92.5C 76.2864,86.2649 77.6198,80.4316 80.5,75C 82.99,73.0573 85.8234,71.8907 89,71.5C 92.0572,73.3943 95.2238,75.061 98.5,76.5C 101.684,75.6475 104.35,73.9808 106.5,71.5 Z"/></g>
<g><path style="opacity:1" fill="#f3f3f3" d="M 198.5,84.5 C 198.5,87.1667 198.5,89.8333 198.5,92.5C 196.379,92.6747 194.379,92.3414 192.5,91.5C 190.521,88.0533 188.021,87.7199 185,90.5C 185.484,95.1964 183.817,98.8631 180,101.5C 178.456,104.171 177.29,107.004 176.5,110C 172.848,110.499 169.182,110.665 165.5,110.5C 165.537,104.35 166.537,98.3504 168.5,92.5C 166.355,87.5965 163.521,87.2632 160,91.5C 159.148,97.5727 157.981,103.573 156.5,109.5C 154.604,110.466 152.604,110.799 150.5,110.5C 151.315,104.462 152.315,98.4617 153.5,92.5C 155.074,90.8984 155.741,88.8984 155.5,86.5C 155.371,79.4884 158.371,74.4884 164.5,71.5C 168.105,73.9668 172.105,75.3001 176.5,75.5C 181.261,75.1794 185.595,74.0127 189.5,72C 195.322,74.1461 198.322,78.3128 198.5,84.5 Z"/></g>
<g><path style="opacity:1" fill="#acacac" d="M 116.5,75.5 C 118.61,76.4525 119.777,78.1192 120,80.5C 120.548,84.1704 121.048,87.8371 121.5,91.5C 119.468,86.3115 117.802,80.9782 116.5,75.5 Z"/></g>
<g><path style="opacity:1" fill="#727272" d="M 204.5,77.5 C 206.449,81.4794 207.449,85.8128 207.5,90.5C 210.167,90.5 212.833,90.5 215.5,90.5C 212.713,91.4767 209.713,91.81 206.5,91.5C 205.833,86.8333 205.167,82.1667 204.5,77.5 Z"/></g>
<g><path style="opacity:1" fill="#5b5b5b" d="M 147.5,83.5 C 147.664,86.1873 147.497,88.854 147,91.5C 146.722,92.4158 146.222,93.0825 145.5,93.5C 145.753,89.9601 146.419,86.6267 147.5,83.5 Z"/></g>
<g><path style="opacity:1" fill="#707070" d="M 155.5,86.5 C 155.741,88.8984 155.074,90.8984 153.5,92.5C 153.259,90.1016 153.926,88.1016 155.5,86.5 Z"/></g>
<g><path style="opacity:1" fill="#909090" d="M 198.5,84.5 C 199.477,87.2869 199.81,90.2869 199.5,93.5C 197.139,93.6741 194.806,94.0074 192.5,94.5C 192.5,93.5 192.5,92.5 192.5,91.5C 194.379,92.3414 196.379,92.6747 198.5,92.5C 198.5,89.8333 198.5,87.1667 198.5,84.5 Z"/></g>
<g><path style="opacity:1" fill="#a5a5a5" d="M 129.5,92.5 C 131.626,96.4451 132.626,100.778 132.5,105.5C 131.778,105.082 131.278,104.416 131,103.5C 130.452,99.8296 129.952,96.1629 129.5,92.5 Z"/></g>
<g><path style="opacity:1" fill="#7c7c7c" d="M 60.5,97.5 C 66.4065,97.8634 72.0732,98.8634 77.5,100.5C 71.4632,100.874 65.7966,99.8743 60.5,97.5 Z"/></g>
<g><path style="opacity:1" fill="#818181" d="M 212.5,98.5 C 208.458,100.237 204.124,101.237 199.5,101.5C 199.611,100.883 199.944,100.383 200.5,100C 204.51,99.4987 208.51,98.9987 212.5,98.5 Z"/></g>
<g><path style="opacity:1" fill="#6e6e6e" d="M 122.5,99.5 C 124.04,101.838 124.706,104.505 124.5,107.5C 123.232,105.095 122.565,102.428 122.5,99.5 Z"/></g>
<g><path style="opacity:1" fill="#b4b4b4" d="M 218.5,121.5 C 192.342,120.167 165.842,119.5 139,119.5C 112.158,119.5 85.6582,120.167 59.5,121.5C 58.596,120.791 58.2627,119.791 58.5,118.5C 112.167,118.5 165.833,118.5 219.5,118.5C 219.737,119.791 219.404,120.791 218.5,121.5 Z"/></g>
<g><path style="opacity:1" fill="#f6f6f6" d="M 218.5,121.5 C 217.972,122.721 217.305,123.887 216.5,125C 165.167,125.667 113.833,125.667 62.5,125C 61.2899,123.961 60.2899,122.794 59.5,121.5C 85.6582,120.167 112.158,119.5 139,119.5C 165.842,119.5 192.342,120.167 218.5,121.5 Z"/></g>
<g><path style="opacity:1" fill="#c6c6c6" d="M 82.5,135.5 C 61.5267,134.546 40.5267,134.212 19.5,134.5C 19.5,137.5 19.5,140.5 19.5,143.5C 18.5206,140.375 18.1872,137.042 18.5,133.5C 38.8361,133.333 59.1694,133.5 79.5,134C 80.7375,134.232 81.7375,134.732 82.5,135.5 Z"/></g>
<g><path style="opacity:1" fill="#c8c8c8" d="M 158.5,135.5 C 152.342,134.834 146.009,134.5 139.5,134.5C 132.796,134.504 126.463,135.17 120.5,136.5C 119.522,136.189 118.855,135.522 118.5,134.5C 132.167,133.167 145.833,133.167 159.5,134.5C 159.376,135.107 159.043,135.44 158.5,135.5 Z"/></g>
<g><path style="opacity:1" fill="#f4f4f4" d="M 124.5,150.5 C 116.567,152.468 108.234,153.135 99.5,152.5C 99.8064,149.615 99.4731,146.948 98.5,144.5C 98.5327,140.594 97.1994,137.26 94.5,134.5C 99.467,133.338 104.467,133.171 109.5,134C 112.948,140.947 117.948,146.447 124.5,150.5 Z"/></g>
<g><path style="opacity:1" fill="#f9f9f9" d="M 158.5,135.5 C 153.978,139.365 149.478,143.365 145,147.5C 143.991,149.025 143.491,150.692 143.5,152.5C 142.502,176.328 142.169,200.328 142.5,224.5C 140.167,224.5 137.833,224.5 135.5,224.5C 135.831,200.328 135.498,176.328 134.5,152.5C 134.649,151.448 134.483,150.448 134,149.5C 132.287,148.122 130.953,146.455 130,144.5C 126.484,142.172 123.318,139.505 120.5,136.5C 126.463,135.17 132.796,134.504 139.5,134.5C 146.009,134.5 152.342,134.834 158.5,135.5 Z"/></g>
<g><path style="opacity:1" fill="#f6f6f6" d="M 181.5,142.5 C 180.521,145.625 180.187,148.958 180.5,152.5C 171.105,153.138 162.105,152.471 153.5,150.5C 160.025,146.471 165.025,140.971 168.5,134C 174.196,133.17 179.863,133.337 185.5,134.5C 183.216,136.683 181.882,139.35 181.5,142.5 Z"/></g>
<g><path style="opacity:1" fill="#adadad" d="M 189.5,144.5 C 189.5,171.167 189.5,197.833 189.5,224.5C 191.5,224.5 193.5,224.5 195.5,224.5C 195.232,222.901 195.566,221.568 196.5,220.5C 196.5,222.167 196.5,223.833 196.5,225.5C 193.833,225.5 191.167,225.5 188.5,225.5C 188.169,198.328 188.502,171.328 189.5,144.5 Z"/></g>
<g><path style="opacity:1" fill="#b1b1b1" d="M 87.5,139.5 C 89.61,140.453 90.7767,142.119 91,144.5C 91.4998,153.16 91.6664,161.827 91.5,170.5C 90.6706,162.343 90.1706,154.01 90,145.5C 89.3448,143.372 88.5114,141.372 87.5,139.5 Z"/></g>
<g><path style="opacity:1" fill="#909090" d="M 13.5,150.5 C 14.404,151.209 14.7373,152.209 14.5,153.5C 11.5,153.5 8.5,153.5 5.5,153.5C 8.47661,153.098 11.1433,152.098 13.5,150.5 Z"/></g>
<g><path style="opacity:1" fill="#858585" d="M 98.5,144.5 C 99.4731,146.948 99.8064,149.615 99.5,152.5C 108.234,153.135 116.567,152.468 124.5,150.5C 125.404,151.209 125.737,152.209 125.5,153.5C 116.5,153.5 107.5,153.5 98.5,153.5C 98.5,150.5 98.5,147.5 98.5,144.5 Z"/></g>
<g><path style="opacity:1" fill="#868686" d="M 181.5,142.5 C 181.5,146.167 181.5,149.833 181.5,153.5C 171.478,153.832 161.478,153.499 151.5,152.5C 151.855,151.478 152.522,150.811 153.5,150.5C 162.105,152.471 171.105,153.138 180.5,152.5C 180.187,148.958 180.521,145.625 181.5,142.5 Z"/></g>
<g><path style="opacity:1" fill="#9a9a9a" d="M 266.5,150.5 C 269.5,151.833 272.5,153.167 275.5,154.5C 272.272,153.586 268.939,153.253 265.5,153.5C 265.263,152.209 265.596,151.209 266.5,150.5 Z"/></g>
<g><path style="opacity:1" fill="#ababab" d="M 99.5,161.5 C 108.318,160.507 117.318,160.173 126.5,160.5C 126.5,182.167 126.5,203.833 126.5,225.5C 123.833,225.5 121.167,225.5 118.5,225.5C 120.607,224.532 122.941,224.198 125.5,224.5C 125.5,203.5 125.5,182.5 125.5,161.5C 116.833,161.5 108.167,161.5 99.5,161.5 Z"/></g>
<g><path style="opacity:1" fill="#aeaeae" d="M 134.5,152.5 C 135.498,176.328 135.831,200.328 135.5,224.5C 137.833,224.5 140.167,224.5 142.5,224.5C 142.169,200.328 142.502,176.328 143.5,152.5C 143.5,176.833 143.5,201.167 143.5,225.5C 140.5,225.5 137.5,225.5 134.5,225.5C 134.5,201.167 134.5,176.833 134.5,152.5 Z"/></g>
<g><path style="opacity:1" fill="#4b4b4b" d="M 180.5,161.5 C 181.207,184.353 181.874,207.353 182.5,230.5C 181.732,229.737 181.232,228.737 181,227.5C 180.5,205.503 180.333,183.503 180.5,161.5 Z"/></g>
<g><path style="opacity:1" fill="#4c4c4c" d="M 205.5,155.5 C 205.638,160.414 204.972,165.081 203.5,169.5C 203.362,164.586 204.028,159.919 205.5,155.5 Z"/></g>
<g><path style="opacity:1" fill="#bcbcbc" d="M 12.5,161.5 C 12.5,163.167 12.5,164.833 12.5,166.5C 30.5,166.5 48.5,166.5 66.5,166.5C 66.5,164.833 66.5,163.167 66.5,161.5C 68.7664,163.193 69.0997,165.36 67.5,168C 49.1667,168.667 30.8333,168.667 12.5,168C 11.1888,165.726 11.1888,163.56 12.5,161.5 Z"/></g>
<g><path style="opacity:1" fill="#fdfdfd" d="M 12.5,161.5 C 30.5,161.5 48.5,161.5 66.5,161.5C 66.5,163.167 66.5,164.833 66.5,166.5C 48.5,166.5 30.5,166.5 12.5,166.5C 12.5,164.833 12.5,163.167 12.5,161.5 Z"/></g>
<g><path style="opacity:1" fill="#dbdbdb" d="M 212.5,161.5 C 212.833,161.5 213.167,161.5 213.5,161.5C 213.5,163.167 213.5,164.833 213.5,166.5C 231.5,166.5 249.5,166.5 267.5,166.5C 267.5,164.833 267.5,163.167 267.5,161.5C 268.833,163.5 268.833,165.5 267.5,167.5C 249.167,167.5 230.833,167.5 212.5,167.5C 212.5,165.5 212.5,163.5 212.5,161.5 Z"/></g>
<g><path style="opacity:1" fill="#fdfdfd" d="M 213.5,161.5 C 231.5,161.5 249.5,161.5 267.5,161.5C 267.5,163.167 267.5,164.833 267.5,166.5C 249.5,166.5 231.5,166.5 213.5,166.5C 213.5,164.833 213.5,163.167 213.5,161.5 Z"/></g>
<g><path style="opacity:1" fill="#4f4f4f" d="M 74.5,155.5 C 76.0538,159.567 76.7204,163.9 76.5,168.5C 74.8227,164.455 74.1561,160.122 74.5,155.5 Z"/></g>
<g><path style="opacity:1" fill="#7e7e7e" d="M 212.5,161.5 C 212.5,163.5 212.5,165.5 212.5,167.5C 230.833,167.5 249.167,167.5 267.5,167.5C 249.007,168.497 230.341,168.83 211.5,168.5C 211.198,165.941 211.532,163.607 212.5,161.5 Z"/></g>
<g><path style="opacity:1" fill="#7d7d7d" d="M 26.5,176.5 C 30.8205,175.834 35.3205,175.501 40,175.5C 44.8861,175.507 49.3861,176.174 53.5,177.5C 44.5839,176.529 35.5839,176.196 26.5,176.5 Z"/></g>
<g><path style="opacity:1" fill="#515151" d="M 210.5,176.5 C 213.287,175.523 216.287,175.19 219.5,175.5C 219.706,178.495 219.04,181.162 217.5,183.5C 217.674,181.139 218.007,178.806 218.5,176.5C 215.833,176.5 213.167,176.5 210.5,176.5 Z"/></g>
<g><path style="opacity:1" fill="#acacac" d="M 201.5,184.5 C 200.857,190.69 199.857,196.69 198.5,202.5C 198.743,196.816 199.243,191.149 200,185.5C 200.383,184.944 200.883,184.611 201.5,184.5 Z"/></g>
<g><path style="opacity:1" fill="#b2b2b2" d="M 91.5,184.5 C 91.5,198.167 91.5,211.833 91.5,225.5C 88.9407,225.802 86.6074,225.468 84.5,224.5C 86.5,224.5 88.5,224.5 90.5,224.5C 90.1711,210.99 90.5044,197.656 91.5,184.5 Z"/></g>
<g><path style="opacity:1" fill="#747474" d="M 24.5,188.5 C 24.5905,191.152 23.9238,193.485 22.5,195.5C 22.4095,192.848 23.0762,190.515 24.5,188.5 Z"/></g>
<g><path style="opacity:1" fill="#787878" d="M 255.5,188.5 C 256.924,190.515 257.59,192.848 257.5,195.5C 256.076,193.485 255.41,191.152 255.5,188.5 Z"/></g>
<g><path style="opacity:1" fill="#6e6e6e" d="M 264.5,193.5 C 266.074,195.102 266.741,197.102 266.5,199.5C 264.926,197.898 264.259,195.898 264.5,193.5 Z"/></g>
<g><path style="opacity:1" fill="#9a9a9a" d="M 78.5,184.5 C 79.1174,184.611 79.6174,184.944 80,185.5C 81.0696,194.151 81.9029,202.818 82.5,211.5C 80.7709,202.692 79.4376,193.692 78.5,184.5 Z"/></g>
<g><path style="opacity:1" fill="#646464" d="M 65.5,198.5 C 66.9238,200.515 67.5905,202.848 67.5,205.5C 66.0762,203.485 65.4095,201.152 65.5,198.5 Z"/></g>
<g><path style="opacity:1" fill="#757575" d="M 215.5,193.5 C 215.245,197.8 214.245,201.8 212.5,205.5C 212.952,201.837 213.452,198.17 214,194.5C 214.383,193.944 214.883,193.611 215.5,193.5 Z"/></g>
<g><path style="opacity:1" fill="#8f8f8f" d="M 72.5,198.5 C 74.0308,203.25 74.6975,208.25 74.5,213.5C 72.9692,208.75 72.3025,203.75 72.5,198.5 Z"/></g>
<g><path style="opacity:1" fill="#b1b1b1" d="M 22.5,195.5 C 22.5289,202.691 21.1956,209.358 18.5,215.5C 19.566,208.657 20.8993,201.991 22.5,195.5 Z"/></g>
<g><path style="opacity:1" fill="#aaaaaa" d="M 257.5,195.5 C 259.044,200.606 260.044,205.939 260.5,211.5C 258.24,206.527 257.24,201.194 257.5,195.5 Z"/></g>
<g><path style="opacity:1" fill="#969696" d="M 59.5,205.5 C 60.6572,208.273 61.3239,211.273 61.5,214.5C 60.8826,214.389 60.3826,214.056 60,213.5C 59.5026,210.854 59.3359,208.187 59.5,205.5 Z"/></g>
<g><path style="opacity:1" fill="#9f9f9f" d="M 221.5,204.5 C 221.712,208.345 220.712,211.679 218.5,214.5C 218.804,211.478 219.304,208.478 220,205.5C 220.383,204.944 220.883,204.611 221.5,204.5 Z"/></g>
<g><path style="opacity:1" fill="#a1a1a1" d="M 208.5,193.5 C 208.217,202.787 206.884,211.787 204.5,220.5C 205.098,211.262 206.431,202.262 208.5,193.5 Z"/></g>
<g><path style="opacity:1" fill="#676767" d="M 262.5,220.5 C 263.222,220.918 263.722,221.584 264,222.5C 264.497,225.146 264.664,227.813 264.5,230.5C 263.419,227.373 262.753,224.04 262.5,220.5 Z"/></g>
<g><path style="opacity:1" fill="#565656" d="M 182.5,230.5 C 188.643,232.771 194.977,233.104 201.5,231.5C 201.389,232.117 201.056,232.617 200.5,233C 195.167,233.667 189.833,233.667 184.5,233C 183.619,232.292 182.953,231.458 182.5,230.5 Z"/></g>
<g><path style="opacity:1" fill="#b6b6b6" d="M 270.5,220.5 C 271.117,220.611 271.617,220.944 272,221.5C 273.106,225.122 273.439,228.789 273,232.5C 272.329,233.252 271.496,233.586 270.5,233.5C 271.597,229.223 271.597,224.89 270.5,220.5 Z"/></g>
</svg>
